<svg width="1037" height="1121" viewBox="0 0 1037 1121" fill="none" xmlns="http://www.w3.org/2000/svg">
<g clip-path="url(#clip0_1123_413)">
<path d="M532.287 184.284C535.447 184.267 538.608 184.242 541.768 184.209C564.482 183.999 586.257 185.984 608.639 189.98C610.459 190.304 610.459 190.304 612.316 190.633C657.647 198.788 702.614 217.86 740.254 245.262C742.744 246.959 742.744 246.959 745.285 248.69C775.356 269.777 802.461 298.273 821.889 329.911C822.559 331.002 823.229 332.093 823.919 333.217C874.368 416.445 886.814 516.557 866.709 611.817C864.871 619.886 862.644 627.791 860.207 635.686C859.77 637.111 859.333 638.537 858.883 640.006C844.233 686.719 822.084 731.813 794.489 771.734C791.27 776.562 788.513 781.54 785.855 786.717C784.123 790.089 782.328 793.425 780.505 796.745C767.994 819.776 758.591 844.661 753.582 870.631C753.243 872.212 752.904 873.793 752.554 875.422C742.088 932.061 757.798 993.725 775.611 1047.08C777.945 1054.23 778.747 1060.07 778.572 1067.57C731.059 1067.61 683.545 1067.64 636.031 1067.66C613.971 1067.67 591.91 1067.68 569.85 1067.7C550.629 1067.72 531.408 1067.73 512.187 1067.73C502.004 1067.74 491.821 1067.74 481.637 1067.75C472.063 1067.76 462.488 1067.77 452.913 1067.77C449.39 1067.77 445.867 1067.77 442.343 1067.78C437.551 1067.78 432.759 1067.78 427.967 1067.78C426.557 1067.78 425.147 1067.79 423.695 1067.79C414.095 1067.77 414.095 1067.77 410.383 1065.84C407.783 1059.04 406.422 1052.47 405.502 1045.23C405.247 1043.3 404.991 1041.37 404.728 1039.38C404.464 1037.35 404.199 1035.33 403.927 1033.24C399.765 991.881 399.765 991.881 378.039 959.127C364.022 952.233 348.078 952.991 332.888 952.753C253.635 951.431 253.635 951.431 230.453 931.095C215.961 915.245 214.857 899.411 215.357 878.624C215.391 877.34 215.424 876.056 215.459 874.734C215.593 869.637 215.692 864.541 215.772 859.442C215.83 857.196 215.888 854.95 215.947 852.636C215.286 844.246 213.04 838.401 206.869 832.848C204.936 831.508 204.936 831.508 202.964 830.142C195.735 824.577 192.521 821.059 190.469 811.895C191.714 804.97 193.818 799.029 197.133 792.892C195.587 791.93 194.04 790.968 192.447 789.976C185.77 784.953 182.743 781.19 181.41 772.701C182.107 767.228 183.386 763.58 185.471 758.557C188.793 750.328 190.279 744.759 188.803 735.883C182.019 730.207 175.754 727.731 167.353 725.626C155.451 722.293 147.294 717.955 137.989 709.754C133.874 701.574 133.793 694.791 135.49 685.784C138.493 677.339 142.748 669.486 146.952 661.633C148.701 658.363 150.403 655.073 152.086 651.767C154.24 647.534 156.409 643.31 158.593 639.093C172.811 611.643 172.811 611.643 186.2 583.751C186.729 582.623 187.259 581.494 187.804 580.331C194.846 564.812 197.917 550.814 197.55 533.653C197.535 531.914 197.52 530.175 197.505 528.383C197.393 519.421 197.01 510.542 196.27 501.614C192.289 452.483 209.939 400.293 232.119 357.552C232.985 355.842 233.85 354.131 234.742 352.369C267.822 290.16 324.232 241.615 387.059 214.166C388.783 213.373 390.508 212.58 392.285 211.764C405.876 205.767 419.703 201.273 433.915 197.107C435.734 196.57 437.552 196.034 439.425 195.481C441.151 194.989 442.876 194.496 444.653 193.989C446.196 193.548 447.738 193.108 449.327 192.654C453.694 191.709 457.583 191.532 462.029 191.708C462.579 190.568 463.129 189.428 463.696 188.253C486.107 183.88 509.559 184.404 532.287 184.284ZM477.024 255.627C475.943 255.877 474.863 256.126 473.75 256.384C434.197 265.698 396.739 284.201 365.401 310.908C364.115 311.98 364.115 311.98 362.804 313.073C347.437 325.926 334.33 339.773 322.084 355.824C320.89 357.383 319.696 358.942 318.466 360.548C303.733 380.713 291.431 402.598 283.766 426.653C285.636 426.473 287.507 426.293 289.434 426.107C309.328 424.78 309.328 424.78 317.19 430.115C321.147 434.427 321.147 434.427 324.473 438.8C325.334 439.922 326.195 441.045 327.082 442.201C328.182 442.201 329.281 442.201 330.414 442.201C330.769 443.131 331.124 444.061 331.49 445.019C334.577 450.619 338.803 454.814 343.196 459.308C344.129 460.275 345.062 461.241 346.023 462.237C347.997 464.278 349.974 466.315 351.955 468.348C354.963 471.436 357.957 474.536 360.949 477.639C362.875 479.628 364.801 481.615 366.728 483.601C367.614 484.518 368.499 485.434 369.411 486.378C371.933 488.961 374.488 491.501 377.063 494.027C378.306 495.284 378.306 495.284 379.574 496.566C385.444 502.147 389.237 503.72 397.146 503.509C398.993 503.481 400.84 503.453 402.743 503.424C405.597 503.316 405.597 503.316 408.509 503.205C410.45 503.166 412.392 503.127 414.392 503.087C419.165 502.985 423.937 502.83 428.709 502.665C428.709 496.394 428.709 490.123 428.709 483.662C420.501 481.96 413.571 481.937 405.281 482.211C391.698 481.443 382.617 471.224 373.692 461.474C366.995 453.033 367.046 445.333 367.406 434.8C367.685 427.484 367.685 427.484 364.197 421.39C360.617 419.131 360.617 419.131 356.921 417.82C353.738 416.288 353.738 416.288 351.688 413.177C348.584 403.978 349.138 394.886 353.114 386.164C359.427 379.1 364.44 376.901 373.627 375.691C381.438 376.017 386.619 379.554 392.057 385.192C396.521 392.438 396.315 401.025 395.389 409.378C392.859 415.792 390.796 417.752 385.08 421.471C380.989 424.78 380.426 426.476 379.458 431.89C379.002 443.731 379.002 443.731 383.831 454.078C386.253 455.895 386.253 455.895 388.725 457.749C389.791 459.322 389.791 459.322 390.879 460.927C394.484 465.989 397.46 469.367 403.682 470.377C412.052 470.9 420.355 470.456 428.709 469.842C428.455 466.926 428.455 466.926 428.195 463.951C427.66 451.248 427.69 441.014 436.05 431.033C441.422 425.355 447.136 420.113 453.098 415.111C453.846 414.359 454.594 413.607 455.365 412.833C455.365 411.693 455.365 410.553 455.365 409.378C456.431 408.843 457.496 408.309 458.593 407.758C461.923 406.209 461.923 406.209 463.696 404.195C467.267 403.921 470.847 403.761 474.427 403.649C476.601 403.576 478.776 403.504 481.016 403.429C483.33 403.361 485.643 403.292 487.957 403.224C490.277 403.149 492.597 403.074 494.917 402.998C500.614 402.814 506.312 402.637 512.01 402.468C512.38 399.688 512.722 396.905 513.051 394.12C513.245 392.571 513.438 391.021 513.637 389.425C514.091 384.794 514.091 384.794 510.344 380.55C508.695 379.231 507.045 377.913 505.346 376.555C504.603 375.562 503.859 374.569 503.094 373.546C498.772 367.927 495.624 364.843 488.68 363.48C482.846 363.273 477.126 363.406 471.297 363.706C468.277 363.788 468.277 363.788 465.196 363.871C460.249 364.013 455.31 364.212 450.367 364.462C449.633 366.088 448.898 367.713 448.142 369.388C444.694 376.153 442.013 378.422 435.373 381.737C426.082 383.274 418.179 382.329 410.383 376.555C404.678 368.273 404.438 360.44 405.385 350.642C406.53 344.703 406.53 344.703 408.717 340.276C412.882 338.009 412.882 338.009 417.047 336.821C418.147 336.251 419.246 335.681 420.379 335.094C428.114 334.115 433.916 334.366 440.996 337.901C445.767 342.377 447.665 346.388 450.367 352.369C451.794 352.331 453.221 352.293 454.691 352.254C460.065 352.152 465.432 352.13 470.806 352.158C473.117 352.155 475.427 352.121 477.737 352.055C487.845 351.783 496.894 351.574 505.458 357.83C509.628 362.154 513.329 366.599 517.008 371.372C518.233 372.574 519.459 373.775 520.722 375.014C525.135 379.903 524.687 384.251 524.922 390.807C525.016 392.989 525.111 395.172 525.208 397.42C525.272 399.919 525.272 399.919 525.338 402.468C528.358 402.514 531.377 402.548 534.397 402.576C536.079 402.596 537.76 402.616 539.493 402.637C543.565 402.962 543.565 402.962 545.33 400.74C547.393 391.881 548.044 383.547 545.33 374.827C538.393 363.18 527.869 354.134 518.258 344.919C515.66 342.326 513.067 339.727 510.481 337.122C505.737 332.39 500.983 327.673 496.155 323.033C494.712 321.642 494.712 321.642 493.24 320.224C490.165 317.663 487.361 315.859 483.688 314.363C482.038 315.218 482.038 315.218 480.356 316.091C472.013 316.941 464.567 317.461 457.031 313.392C452.263 307.366 448.761 301.625 448.656 293.599C449.389 286.367 451.235 279.717 453.699 272.902C455.005 272.653 456.311 272.404 457.656 272.147C461.97 271.386 461.97 271.386 465.362 269.447C474.097 268.751 479.625 269.688 487.02 274.63C490.716 278.503 490.716 278.503 493.684 283.268C493.456 288.174 493.456 288.174 492.538 293.525C492.366 301.135 492.989 305.669 497.933 311.232C503.245 316.461 508.885 321.308 514.493 326.19C521.88 332.764 528.969 339.638 535.963 346.656C538.41 349.083 540.908 351.445 543.411 353.809C551.387 361.796 556.213 367.277 557.207 378.998C557.209 382.215 557.145 385.434 556.992 388.647C557.02 391.095 557.054 393.542 557.097 395.99C557.062 397.557 557.028 399.125 556.992 400.74C561.794 402.4 564.82 402.651 569.8 402.576C571.146 402.56 572.493 402.545 573.88 402.529C574.905 402.508 575.929 402.488 576.985 402.468C576.93 401.05 576.876 399.632 576.82 398.17C575.566 354.992 575.566 354.992 582.861 345.115C587.557 340.283 592.956 336.848 598.643 333.366C605.818 328.465 605.818 328.465 609.498 320.788C609.352 319.523 609.206 318.258 609.055 316.955C608.623 310.552 608.847 306.301 611.971 300.543C613.62 299.688 613.62 299.688 615.303 298.815C615.303 297.675 615.303 296.535 615.303 295.36C623.573 291.842 631.454 290.282 640.293 291.905C646.73 295.462 650.872 300.486 653.621 307.453C654.869 314.88 655.255 321.839 651.5 328.481C648.064 332.687 645.073 336.071 640.293 338.549C637.348 338.76 634.394 338.852 631.442 338.873C629.081 338.91 629.081 338.91 626.672 338.947C621.727 338.529 618.121 337.236 613.637 335.094C610.408 338.152 607.18 341.211 603.953 344.271C603.042 345.134 602.13 345.997 601.191 346.886C598.667 349.281 596.156 351.688 593.645 354.097C592.722 354.843 591.8 355.589 590.85 356.357C587.6 360.668 588.233 363.844 588.523 369.233C588.66 372.131 588.66 372.131 588.8 375.087C588.921 377.103 589.042 379.12 589.167 381.197C589.269 383.234 589.371 385.27 589.476 387.369C589.732 392.404 590.012 397.436 590.313 402.468C592.443 402.323 594.574 402.178 596.769 402.029C599.615 401.851 602.461 401.673 605.307 401.496C607.404 401.351 607.404 401.351 609.543 401.203C631.379 399.886 631.379 399.886 639.584 405.295C641.327 407.049 641.327 407.049 643.105 408.838C644.357 410.085 645.609 411.332 646.899 412.617C651.067 417.13 654.855 421.774 658.619 426.653C661.364 429.565 664.135 432.452 666.949 435.291C670.943 439.432 670.753 440.595 670.971 446.264C671.036 447.733 671.1 449.203 671.167 450.717C671.244 453.022 671.244 453.022 671.323 455.374C671.387 456.924 671.452 458.474 671.518 460.07C671.675 463.903 671.818 467.736 671.947 471.569C676.369 471.701 680.75 471.72 685.171 471.677C687.009 471.749 687.009 471.749 688.884 471.822C697.311 471.632 702.223 469.107 708.613 463.391C717.316 453.466 717.351 444.221 716.826 431.296C716.842 429.282 716.858 427.268 716.875 425.192C716.774 419.68 716.513 414.738 715.264 409.378C710.709 404.665 710.709 404.665 705.268 402.468C700.701 396.86 698.771 393.467 697.875 386.164C698.819 378.194 700.053 371.15 706.12 365.623C713.003 361.068 718.709 359.922 726.926 361.007C735.489 364.141 739.643 368.062 743.586 376.555C744.828 385.54 744.122 394.247 740.254 402.468C737.13 404.627 737.13 404.627 733.59 405.923C730.291 407.633 730.291 407.633 726.926 409.378C726.926 426.481 726.926 443.583 726.926 461.204C723.627 462.914 723.627 462.914 720.262 464.659C720.262 465.799 720.262 466.94 720.262 468.114C719.162 468.114 718.063 468.114 716.93 468.114C714.674 470.965 712.454 473.845 710.266 476.752C709.166 477.322 708.067 477.892 706.934 478.48C706.934 479.62 706.934 480.76 706.934 481.935C695.388 482.505 683.843 483.075 671.947 483.662C671.947 490.503 671.947 497.344 671.947 504.393C676.58 505.994 679.312 506.331 684.089 506.316C685.523 506.316 686.957 506.316 688.434 506.316C690.746 506.302 690.746 506.302 693.105 506.289C694.688 506.286 696.271 506.284 697.902 506.281C702.96 506.272 708.019 506.25 713.077 506.228C716.506 506.219 719.934 506.212 723.363 506.204C731.77 506.185 740.177 506.156 748.584 506.12C749.684 502.7 750.783 499.279 751.916 495.755C753.016 495.755 754.115 495.755 755.248 495.755C755.248 494.615 755.248 493.475 755.248 492.3C765.417 488.641 772.987 487.94 783.154 492.732C789.528 497.872 791.97 503.175 793.254 511.303C793.766 517.453 793.456 521.477 790.235 526.851C783.669 534.157 778.63 536.862 768.986 537.452C761.419 536.974 755.725 534.403 750.458 528.578C748.584 525.123 748.584 525.123 746.918 519.94C722.728 519.94 698.537 519.94 673.613 519.94C671.787 525.624 672.281 528.082 673.613 533.761C675.396 533.364 677.178 532.968 679.015 532.56C689.281 531.25 699.197 531.056 708.007 537.488C717.385 545.482 725.603 554.767 733.758 564.059C734.655 565.077 735.552 566.094 736.476 567.143C738.163 569.078 739.828 571.034 741.467 573.014C747.293 579.813 752.251 582.43 760.246 585.587C764.905 589.655 766.64 591.656 768.576 597.68C769.183 607.272 769.101 613.736 763.578 621.865C755.01 628.485 749.196 630.172 738.588 628.775C729.087 624.526 726.685 618.283 722.598 609.064C718.689 601.578 713.013 596.376 706.934 590.77C705.75 589.641 704.567 588.511 703.348 587.348C693.173 577.819 687.419 574.518 673.613 575.222C673.064 575.792 672.514 576.362 671.947 576.949C672.051 579.291 672.244 581.629 672.475 583.961C673.336 598.943 673.376 610.639 663.5 622.432C657.038 629.272 650.174 635.601 643.02 641.652C642.12 642.534 641.22 643.415 640.293 644.323C640.293 645.463 640.293 646.604 640.293 647.778C639.194 647.778 638.094 647.778 636.961 647.778C636.961 648.919 636.961 650.059 636.961 651.233C621.017 651.233 605.074 651.233 588.647 651.233C586.872 670.207 586.872 670.207 593.541 687.404C602.512 696.421 612.961 696.016 624.987 696.149C626.856 696.172 628.725 696.194 630.651 696.216C635.763 696.051 640.337 695.739 645.291 694.422C649.652 689.697 649.652 689.697 651.955 684.057C657.014 678.993 660.601 678.128 667.574 678.118C675.831 678.358 680.714 679.823 686.942 685.784C691.504 693.478 691.343 701.197 690.274 709.97C687.31 716.47 684.724 719.502 679.132 723.682C671.788 726.125 666.016 726.044 658.619 723.79C653.016 720.52 649.314 716.628 646.475 710.567C643.968 706.014 643.968 706.014 639.093 705.704C637.292 705.809 635.491 705.914 633.636 706.022C631.646 706.081 629.657 706.141 627.608 706.202C625.506 706.269 623.404 706.337 621.238 706.407C593.638 706.243 593.638 706.243 584.065 696.365C575.444 686.333 575.319 674.745 575.958 661.856C576.233 658.309 576.599 654.769 576.985 651.233C570.387 651.233 563.79 651.233 556.992 651.233C553.973 673.553 553.973 673.553 561.951 693.605C566.81 699.228 572.061 704.35 577.593 709.254C580.317 711.697 580.317 711.697 584.195 715.854C586.741 719.005 586.741 719.005 590.313 718.607C590.313 719.748 590.313 720.888 590.313 722.063C591.412 722.063 592.512 722.063 593.645 722.063C593.645 723.203 593.645 724.343 593.645 725.518C594.744 725.518 595.844 725.518 596.977 725.518C596.977 726.658 596.977 727.798 596.977 728.973C598.076 728.973 599.176 728.973 600.309 728.973C603.204 739.054 603.427 749.715 601.975 760.068C598.765 765.26 595.046 768.517 590.313 772.161C590.313 772.731 590.313 773.301 590.313 773.889C621.621 780.44 650.218 777.312 678.612 761.796C678.612 760.656 678.612 759.516 678.612 758.341C681.36 757.771 684.109 757.201 686.942 756.613C686.942 755.473 686.942 754.333 686.942 753.158C688.103 752.769 689.265 752.379 690.462 751.977C696.33 749.203 700.78 745.325 705.58 740.957C706.53 740.104 707.48 739.251 708.459 738.372C710.387 736.636 712.311 734.894 714.23 733.147C716.599 731 718.998 728.887 721.401 726.78C759.775 692.463 784.824 644.199 798.565 594.225C798.943 592.89 799.322 591.556 799.712 590.181C811.605 546.294 809.767 490.667 796.899 447.384C796.524 446.115 796.15 444.847 795.765 443.54C793.261 435.388 790.225 427.569 786.903 419.743C786.37 418.455 785.838 417.167 785.289 415.84C776.753 395.367 766.533 377.079 753.582 359.279C752.35 357.58 751.117 355.881 749.847 354.13C733.385 332.466 714.306 313.787 691.94 298.815C690.84 298.815 689.741 298.815 688.608 298.815C688.608 297.675 688.608 296.535 688.608 295.36C656.735 276.387 623.34 260.728 586.981 253.899C585.438 253.596 583.895 253.292 582.306 252.979C567.384 250.286 552.716 249.827 537.625 249.905C535.758 249.908 535.758 249.908 533.854 249.912C514.542 249.984 495.879 251.056 477.024 255.627ZM462.967 285.211C460.201 290.487 459.321 292.945 460.363 298.815C461.955 302.195 461.955 302.195 465.362 303.998C473.167 304.949 473.167 304.949 480.147 301.839C482.361 298.269 483.446 296.174 483.688 291.905C482.246 287.062 482.246 287.062 478.69 283.268C471.607 280.864 468.726 280.005 462.967 285.211ZM621.967 309.181C620.303 314.972 619.593 318.037 622.175 323.541C626.129 327.231 628.31 328.052 633.629 328.184C638.359 326.594 638.359 326.594 641.959 323.001C644.184 318.084 644.184 318.084 643.625 312.636C639.777 307.237 637.37 304.408 630.922 303.134C626.143 304.178 624.675 304.968 621.967 309.181ZM418.817 349.994C416.534 355.287 416.223 358.726 417.047 364.462C420.798 368.95 423.128 369.571 428.813 370.292C433.637 370.048 433.637 370.048 436.727 367.485C439.059 363.922 440.126 361.879 440.371 357.552C438.459 353.676 436.69 350.28 433.707 347.187C425.636 346.197 425.636 346.197 418.817 349.994ZM712.14 374.935C709.117 380.334 709.441 384.283 710.266 390.375C713.582 394.968 713.582 394.968 718.596 397.285C724.499 397.285 727.354 396.676 731.82 392.642C734.279 387.094 733.697 384.044 731.924 378.282C728.084 373.858 725.871 373.177 720.158 372.452C715.386 372.758 715.386 372.758 712.14 374.935ZM364.672 391.347C361.381 396.669 361.303 399.704 362.069 405.923C364.968 411.68 364.968 411.68 371.023 412.617C376.862 413.256 376.862 413.256 381.124 411.105C385.032 405.918 384.387 401.944 383.727 395.558C380.82 389.814 380.82 389.814 374.772 388.755C368.776 388.07 368.776 388.07 364.672 391.347ZM452.221 443.529C446.236 455.977 447.239 470.044 447.562 483.588C447.568 487.041 447.565 490.493 447.555 493.946C447.558 501.14 447.64 508.327 447.784 515.52C447.964 524.708 447.974 533.885 447.927 543.075C447.906 550.188 447.959 557.299 448.037 564.412C448.067 567.798 448.079 571.185 448.069 574.571C447.602 593.185 447.602 593.185 453.799 610.09C457.47 613.891 461.16 617.006 465.362 620.138C465.911 621.278 466.461 622.418 467.028 623.593C468.127 623.593 469.227 623.593 470.36 623.593C471.459 625.873 472.559 628.153 473.692 630.503C476.166 629.648 476.166 629.648 478.69 628.775C483.362 628.741 487.984 628.81 492.651 628.963C495.607 629.043 498.563 629.122 501.519 629.2C503.872 629.265 503.872 629.265 506.274 629.332C516.362 629.59 526.452 629.729 536.541 629.887C545.392 630.032 554.237 630.22 563.084 630.505C571.657 630.779 580.224 630.93 588.8 631.003C592.051 631.051 595.301 631.143 598.549 631.28C613.689 631.896 626.849 631.864 639.203 621.811C649.461 611.878 653.879 602.077 654.815 587.605C654.994 581.147 654.865 574.722 654.702 568.264C654.692 564.803 654.691 561.342 654.697 557.881C654.687 550.672 654.598 543.471 654.447 536.264C654.257 527.045 654.231 517.836 654.258 508.615C654.268 501.487 654.209 494.361 654.128 487.234C654.094 483.835 654.077 480.436 654.077 477.037C654.67 459.271 654.669 459.271 649.257 442.979C646.049 439.885 646.049 439.885 642.607 437.897C638.608 435.279 636.385 432.717 633.281 429.065C627.727 423.2 623.878 421.743 616.046 421.425C614.014 421.433 614.014 421.433 611.941 421.442C610.482 421.401 609.023 421.36 607.519 421.319C602.718 421.204 597.921 421.18 593.118 421.167C589.754 421.128 586.39 421.087 583.026 421.045C575.977 420.973 568.93 420.95 561.881 420.957C552.902 420.959 543.933 420.794 534.956 420.585C528.005 420.45 521.056 420.426 514.103 420.433C510.797 420.419 507.491 420.366 504.187 420.271C481.949 419.697 464.999 422.998 452.221 443.529ZM278.768 438.746C263.368 501.888 263.368 501.888 280.03 562.94C286.876 573.129 294.356 581.394 303.758 589.042C305.07 590.16 306.382 591.278 307.734 592.43C324.098 605.669 342.781 614.568 361.54 623.482C365.147 625.2 368.745 626.938 372.338 628.688C381.344 633.073 390.367 637.412 399.45 641.624C437.259 659.455 471.242 681.074 502.657 709.292C507.265 713.414 511.925 717.471 516.592 721.523C518.232 722.955 519.873 724.386 521.564 725.862C524.752 729.152 524.752 729.152 527.004 728.973C527.983 723.438 527.983 723.438 527.004 716.88C524.289 713.27 521.362 710.372 518.056 707.345C514.159 703.673 513.711 701.84 513.334 696.341C513.273 694.26 513.212 692.179 513.149 690.036C513.044 686.662 513.044 686.662 512.937 683.22C512.871 680.836 512.805 678.451 512.739 676.067C512.667 673.669 512.594 671.271 512.521 668.873C512.344 662.993 512.174 657.114 512.01 651.233C510.625 651.263 509.24 651.292 507.813 651.322C502.604 651.393 497.4 651.394 492.191 651.349C488.857 651.342 485.522 651.413 482.188 651.486C470.424 651.333 463.315 650.632 454.734 641.833C451.674 638.131 449.134 634.855 447.035 630.503C445.936 630.503 444.836 630.503 443.703 630.503C443.703 629.363 443.703 628.223 443.703 627.048C442.604 627.048 441.504 627.048 440.371 627.048C439.959 626.05 439.547 625.053 439.122 624.025C437.208 619.943 437.208 619.943 433.641 617.025C429.616 612.345 429.493 610.049 429.36 603.861C429.306 602.091 429.253 600.32 429.197 598.496C429.174 596.659 429.15 594.822 429.126 592.929C429.076 591.065 429.027 589.201 428.976 587.281C428.858 582.685 428.77 578.091 428.709 573.494C426.077 573.365 423.443 573.273 420.809 573.197C419.342 573.142 417.876 573.087 416.365 573.03C409.938 573.721 406.558 576.613 402.378 581.552C399.151 588.092 399.782 594.193 400.465 601.364C400.37 607.386 398.788 610.149 395.389 614.955C388.269 621.22 379.509 622.38 370.399 621.865C363.648 618.429 359.389 614.604 355.404 608.045C354.121 600.023 354.389 592.876 357.904 585.587C358.728 584.447 359.553 583.307 360.403 582.132C360.403 580.992 360.403 579.851 360.403 578.677C367.764 574.983 375.561 573.32 383.727 573.494C388.36 575.195 388.36 575.195 392.057 576.949C392.888 575.847 393.719 574.745 394.575 573.609C400.212 566.883 404.311 562.069 412.869 559.984C418.19 559.61 423.381 559.46 428.709 559.674C428.709 554.543 428.709 549.412 428.709 544.126C425.23 544.061 425.23 544.061 421.68 543.995C413.054 543.832 404.429 543.659 395.804 543.483C392.074 543.408 388.345 543.336 384.615 543.267C379.247 543.167 373.879 543.057 368.511 542.945C366.85 542.916 365.189 542.887 363.477 542.858C356.981 542.715 350.853 542.476 344.433 541.359C343.106 541.132 341.778 540.905 340.41 540.671C337.807 542.937 337.807 542.937 335.412 545.854C325.281 550.856 316.022 549.064 305.528 546.285C302.092 544.126 302.092 544.126 299.905 540.671C297.743 530.887 297.564 521.802 300.738 512.274C304.326 507.016 306.26 504.979 312.088 502.665C319.776 501.705 326.725 502.19 334.267 503.961C340.633 509.487 342.507 516.068 345.278 524.057C346.608 528.809 346.608 528.809 350.406 530.306C352.925 530.461 355.45 530.509 357.973 530.502C360.324 530.502 360.324 530.502 362.722 530.501C365.266 530.488 365.266 530.488 367.861 530.474C370.461 530.471 370.461 530.471 373.113 530.467C378.664 530.457 384.215 530.436 389.766 530.414C393.523 530.405 397.28 530.397 401.038 530.39C410.262 530.371 419.485 530.342 428.709 530.306C428.709 525.745 428.709 521.184 428.709 516.485C427.628 516.777 426.546 517.068 425.432 517.369C410.836 520.618 395.771 521.623 382.061 514.758C361.653 500.256 344.845 479.34 328.534 460.249C316.552 444.734 316.552 444.734 299.756 437.734C297.235 437.802 294.716 437.924 292.2 438.098C290.253 438.168 290.253 438.168 288.266 438.24C285.098 438.361 281.932 438.547 278.768 438.746ZM761.288 504.609C758.153 509.408 758.153 509.408 758.58 514.974C759.934 519.957 759.934 519.957 762.954 523.288C768.702 525.954 772.575 525.008 778.572 523.396C782.48 518.411 782.48 518.411 781.696 512.167C780.734 506.162 780.734 506.162 777.323 502.773C770.488 499.426 767.037 499.274 761.288 504.609ZM314.171 515.946C309.6 520.641 309.6 520.641 308.756 526.851C310.668 530.726 312.437 534.123 315.42 537.216C321.041 538.081 321.041 538.081 327.082 537.216C331.479 533.676 331.479 533.676 333.746 528.578C333.631 523.547 332.804 520.992 329.998 516.917C324.038 512.503 320.486 511.927 314.171 515.946ZM671.947 545.854C671.947 551.554 671.947 557.255 671.947 563.129C681.294 563.699 690.64 564.269 700.27 564.856C701.369 567.137 702.469 569.417 703.602 571.767C704.701 571.767 705.801 571.767 706.934 571.767C706.934 572.907 706.934 574.047 706.934 575.222C709.797 578.226 709.797 578.226 713.39 581.268C716.914 584.359 720.329 587.384 723.594 590.77C725.243 590.77 726.893 590.77 728.592 590.77C732.26 586.556 732.26 586.556 735.256 582.132C734.442 581.34 733.627 580.548 732.788 579.732C729.063 576.106 725.339 572.479 721.616 568.851C720.335 567.605 719.053 566.359 717.734 565.076C716.483 563.857 715.232 562.637 713.943 561.381C712.101 559.605 712.101 559.605 710.222 557.793C706.934 554.491 706.934 554.491 702.717 549.309C696.822 544.357 692.096 544.871 684.755 545.314C683.521 545.353 682.287 545.392 681.016 545.432C677.992 545.533 674.969 545.688 671.947 545.854ZM367.067 592.497C364.765 597.64 364.765 597.64 367.483 602.107C370.289 606.681 370.289 606.681 375.397 609.772C380.522 609.63 380.522 609.63 385.393 608.045C389.27 602.014 389.563 599.593 388.725 592.497C385.421 587.675 383.51 585.888 377.896 584.723C372.433 585.856 370.507 588.037 367.067 592.497ZM739.005 596.06C734.561 600.943 734.561 600.943 735.568 607.721C736.238 610.447 736.238 610.447 736.922 613.228C744.092 616.371 744.092 616.371 751.604 615.279C755.105 613.54 755.105 613.54 756.914 611.5C757.748 605.672 757.748 605.672 756.914 599.407C753.274 595.033 753.274 595.033 748.584 592.497C743.298 591.979 743.298 591.979 739.005 596.06ZM523.672 651.233C523.311 658.436 523.047 665.62 522.839 672.828C522.727 674.854 522.616 676.881 522.501 678.969C522.137 690.43 522.137 690.43 526.64 700.57C529.95 703.959 533.379 706.952 537 709.97C539.252 714.639 538.338 718.483 537.962 723.558C537.023 736.003 537.023 736.003 541.666 746.997C546.068 750.149 550.498 752.5 555.326 754.886C558.871 757.218 562.411 759.557 565.947 761.904C570.661 765.154 570.661 765.154 575.319 766.979C581.855 764.845 586.116 760.414 590.313 754.886C591.91 749.651 592.473 744.81 591.979 739.338C588.769 734.918 586.423 732.4 582.36 729.074C580.305 727.217 578.255 725.354 576.209 723.485C575.14 722.531 574.07 721.576 572.969 720.593C544.629 694.99 544.629 694.99 543.234 674.62C543.403 666.646 544.041 659.104 545.33 651.233C538.183 651.233 531.036 651.233 523.672 651.233ZM659.661 692.91C656.508 697.71 656.508 697.71 657.057 703.276C658.887 709.58 658.887 709.58 663.617 713.425C669.87 713.309 673.761 713.026 678.612 708.782C680.926 703.233 680.37 700.134 678.612 694.422C675.089 690.509 672.828 689.422 667.782 688.376C663.277 688.93 663.277 688.93 659.661 692.91Z" fill="#E7B008"/>
<path d="M500.556 440.69C507.116 445.126 511.795 450.394 515.342 457.749C525.123 458.091 534.902 458.342 544.688 458.508C548.014 458.578 551.34 458.672 554.665 458.792C559.455 458.96 564.239 459.038 569.032 459.099C571.25 459.206 571.25 459.206 573.513 459.315C581.752 459.333 581.752 459.333 588.374 454.702C591.053 451.044 591.053 451.044 593.218 447.242C596.405 442.195 599.865 440.589 605.307 438.746C614.464 437.339 620.018 439.517 627.407 444.833C632.797 449.591 634.823 454.302 635.809 461.501C636.311 470.895 634.688 476.334 628.631 483.662C622.966 488.845 622.966 488.845 618.635 488.845C618.635 513.358 618.635 537.872 618.635 563.129C621.384 564.269 624.133 565.409 626.965 566.584C633.918 574.595 635.895 579.533 635.763 590.101C634.816 598.434 631.118 604.168 624.882 609.557C617.532 612.674 611.082 614.465 603.387 612.148C595.243 608.374 591.089 604.117 586.98 595.952C586.98 594.812 586.98 593.672 586.98 592.497C585.331 593.352 585.331 593.352 583.648 594.225C578.706 594.396 573.805 594.466 568.862 594.454C566.663 594.457 566.663 594.457 564.418 594.459C561.315 594.46 558.211 594.457 555.108 594.45C550.347 594.441 545.587 594.45 540.827 594.461C537.816 594.46 534.805 594.457 531.794 594.454C530.364 594.458 528.934 594.461 527.46 594.465C517.391 594.423 517.391 594.423 513.676 592.497C513.573 593.459 513.469 594.421 513.363 595.412C510.837 602.869 505.232 606.947 499.098 611.284C491.809 613.9 486.076 613.761 478.689 611.5C472.36 607.752 468.096 602.97 465.361 595.952C464.181 587.327 464.442 580.548 468.277 572.738C471.581 568.836 474.405 565.794 478.689 563.129C479.789 563.129 480.888 563.129 482.021 563.129C482.021 538.615 482.021 514.101 482.021 488.845C477.898 487.134 477.898 487.134 473.691 485.39C466.451 477.256 464.768 470.75 464.886 459.969C465.813 452.267 470.016 447.487 475.461 442.525C483.561 437.378 491.761 437.407 500.556 440.69ZM481.709 455.266C477.577 461.028 477.705 464.555 478.689 471.569C481.091 475.345 481.091 475.345 485.353 476.752C491.385 476.763 491.385 476.763 497.016 475.024C501.063 468.729 500.617 465.156 500.348 457.749C491.092 451.986 491.092 451.986 481.709 455.266ZM602.391 455.266C599.491 461.129 599.398 465.08 600.308 471.569C603.789 475.318 603.789 475.318 608.639 476.752C613.354 476.519 616.067 475.585 620.092 473.081C622.467 469.607 622.467 469.607 621.967 463.795C620.845 457.587 620.845 457.587 616.448 454.402C610.939 452.143 607.082 450.922 602.391 455.266ZM513.676 471.569C512.677 474.882 512.677 474.882 512.01 478.479C513.679 481.457 513.679 481.457 516.409 484.006C517.369 484.989 518.329 485.973 519.318 486.986C520.342 487.991 521.367 488.996 522.422 490.032C523.92 491.571 523.92 491.571 525.448 493.14C531.29 499.114 531.29 499.114 538.666 502.665C539.765 502.095 540.865 501.525 541.998 500.937C544.701 500.771 547.412 500.713 550.12 500.722C551.559 500.717 552.998 500.713 554.48 500.708C558.658 500.937 558.658 500.937 561.945 502.069C563.059 502.266 564.174 502.463 565.322 502.665C569.101 499.536 572.226 496.553 575.526 492.948C576.422 492.023 577.318 491.099 578.24 490.147C583.188 484.889 586.559 480.484 588.646 473.297C587.02 471.231 587.02 471.231 583.997 471.362C582.699 471.365 581.4 471.369 580.062 471.373C578.595 471.373 577.127 471.373 575.615 471.374C573.223 471.387 573.223 471.387 570.782 471.401C568.345 471.404 568.345 471.404 565.859 471.408C560.647 471.418 555.436 471.439 550.224 471.461C546.7 471.47 543.176 471.478 539.652 471.485C530.993 471.504 522.334 471.533 513.676 471.569ZM495.349 488.845C495.349 513.358 495.349 537.872 495.349 563.129C497.549 563.699 499.748 564.269 502.014 564.856C505.785 562.405 508.631 559.408 511.834 556.205C515.342 552.764 515.342 552.764 518.797 550.294C524.932 545.52 526.749 541.909 528.37 534.044C529.359 523.659 529.569 513.861 523.112 505.351C518.713 500.455 513.836 496.319 508.678 492.3C507.449 491.28 506.221 490.26 504.955 489.209C500.958 486.367 499.648 486.616 495.349 488.845ZM596.976 487.117C588.73 495.668 580.483 504.22 571.986 513.03C572.536 514.741 573.086 516.451 573.652 518.213C573.601 521.597 573.49 524.981 573.34 528.362C573.265 535.458 573.291 538.294 576.776 544.558C579.981 547.947 579.981 547.947 583.648 547.581C583.648 548.721 583.648 549.861 583.648 551.036C584.748 551.036 585.847 551.036 586.98 551.036C586.98 552.176 586.98 553.316 586.98 554.491C588.08 554.491 589.179 554.491 590.312 554.491C590.312 555.631 590.312 556.772 590.312 557.946C593.989 561.889 593.989 561.889 598.642 564.856C601.941 564.001 601.941 564.001 605.307 563.129C605.307 539.185 605.307 515.242 605.307 490.572C602.558 489.432 599.809 488.292 596.976 487.117ZM546.996 514.758C543.622 518.429 543.622 518.429 541.998 523.395C543.491 530.052 544.749 531.632 550.328 535.488C554.692 535.217 554.692 535.217 558.658 533.761C561.015 528.874 560.856 525.341 560.324 519.94C557.569 516.502 557.569 516.502 553.66 514.758C551.461 514.758 549.262 514.758 546.996 514.758ZM537 547.581C536.134 548.478 535.269 549.376 534.377 550.301C526.921 558.032 519.466 565.763 512.01 573.494C512.559 575.774 513.109 578.055 513.676 580.404C537.866 580.404 562.057 580.404 586.98 580.404C587.53 578.124 588.08 575.844 588.646 573.494C585.825 569.129 585.825 569.129 581.774 564.964C580.389 563.459 579.004 561.954 577.576 560.403C576.281 559.022 574.986 557.641 573.652 556.219C572.354 554.682 572.354 554.682 571.03 553.115C568.84 550.443 568.84 550.443 565.322 547.581C563.08 548.065 560.86 548.658 558.658 549.309C555.85 549.465 553.036 549.533 550.224 549.525C548.082 549.531 548.082 549.531 545.896 549.538C541.998 549.309 541.998 549.309 537 547.581ZM481.292 577.921C477.986 583.27 477.792 586.251 478.689 592.497C481.308 596.641 483.218 597.517 487.748 599.083C492.786 599.466 494.719 599.211 498.682 595.952C501.333 591.159 501.333 591.159 502.014 585.587C500.752 580.528 500.752 580.528 497.016 576.949C490.454 574.846 487.184 574.005 481.292 577.921ZM602.287 577.273C599.661 581.429 598.757 584.041 598.642 589.042C601.667 594.35 603.895 597.042 609.367 599.515C613.908 599.743 613.908 599.743 618.322 596.708C622.365 592.77 622.365 592.77 622.904 587.314C622.298 582.043 622.298 582.043 619.259 578.029C613.515 573.953 608.28 573.201 602.287 577.273Z" fill="#E7B008"/>
<path d="M620.496 440.325C628.087 444.794 632.65 448.834 635.295 457.749C636.43 466.032 636.132 471.622 632.379 479.127C629.08 483.119 626.3 486.149 621.967 488.845C620.867 488.845 619.768 488.845 618.635 488.845C618.635 513.358 618.635 537.872 618.635 563.129C621.384 564.269 624.133 565.409 626.965 566.584C633.994 574.682 635.96 579.822 635.894 590.533C635.295 594.225 635.295 594.225 631.338 597.896C626.965 599.407 626.965 599.407 623.633 597.68C623.633 590.268 623.633 582.857 623.633 575.222C622.533 575.222 621.434 575.222 620.301 575.222C620.301 574.081 620.301 572.941 620.301 571.767C621.95 571.767 623.599 571.767 625.299 571.767C623.649 570.056 623.649 570.056 621.967 568.311C620.317 569.452 618.668 570.592 616.969 571.767C613.201 572.104 613.201 572.104 609.159 571.982C607.813 571.951 606.466 571.92 605.079 571.888C604.054 571.848 603.03 571.808 601.975 571.767C602.799 569.201 602.799 569.201 603.641 566.584C604.74 566.014 605.84 565.444 606.973 564.856C606.973 539.202 606.973 513.548 606.973 487.117C603.124 485.407 599.276 483.697 595.311 481.935C594.761 483.075 594.211 484.215 593.645 485.39C592.545 485.39 591.445 485.39 590.313 485.39C590.862 479.689 591.412 473.988 591.979 468.114C572.186 468.114 552.394 468.114 532.002 468.114C532.002 466.404 532.002 464.694 532.002 462.932C544.647 462.932 557.292 462.932 570.32 462.932C570.32 461.791 570.32 460.651 570.32 459.476C571.287 459.512 572.253 459.548 573.249 459.584C581.55 459.414 581.55 459.414 588.184 454.739C589.816 452.276 591.419 449.792 592.994 447.289C599.389 438.013 610.644 435.915 620.496 440.325ZM602.391 455.266C599.491 461.129 599.398 465.08 600.309 471.569C603.789 475.318 603.789 475.318 608.639 476.752C613.354 476.519 616.067 475.585 620.093 473.081C622.467 469.607 622.467 469.607 621.967 463.795C620.845 457.587 620.845 457.587 616.448 454.402C610.939 452.143 607.082 450.922 602.391 455.266Z" fill="#E7B008"/>
<path d="M591.978 468.114C592.304 478.574 592.304 478.574 591.978 481.935C589.095 484.924 586.16 487.557 583.023 490.248C577.204 495.39 572.109 500.683 568.654 507.848C569.754 507.848 570.853 507.848 571.986 507.848C575.789 516.721 575.538 524.761 575.272 534.267C575.089 539.114 575.089 539.114 576.984 544.126C575.919 544.34 574.854 544.554 573.756 544.774C572.622 545.13 571.488 545.486 570.32 545.854C569.495 547.564 569.495 547.564 568.654 549.309C565.355 549.309 562.057 549.309 558.658 549.309C558.658 548.168 558.658 547.028 558.658 545.854C558.108 546.424 557.558 546.994 556.992 547.581C547.963 548.154 540.527 547.022 532.002 544.126C530.16 538.397 530.056 533.959 530.023 527.93C530 525.993 529.976 524.056 529.952 522.059C530.532 513.635 532.462 509.22 537.937 502.989C543.464 498.497 548.235 498.414 555.079 498.738C558.658 499.21 558.658 499.21 561.86 500.668C565.825 501.382 565.825 501.382 569.864 497.253C571.496 495.552 573.105 493.828 574.693 492.084C575.917 490.821 575.917 490.821 577.166 489.533C582.244 484.124 584.184 480.546 586.98 473.297C550.694 472.442 550.694 472.442 513.675 471.569C515.074 480.06 515.074 480.06 519.877 485.585C520.774 486.493 521.671 487.4 522.594 488.335C523.534 489.252 524.474 490.168 525.442 491.112C526.388 492.062 527.334 493.012 528.308 493.99C530.635 496.322 532.983 498.632 535.334 500.938C534.234 502.078 533.134 503.218 532.002 504.393C531.452 503.823 530.902 503.252 530.336 502.665C529.786 503.805 529.236 504.945 528.67 506.12C523.521 503.786 520.391 501.3 516.799 496.835C515.97 495.824 515.141 494.813 514.287 493.771C509.382 486.883 507.969 481.928 508.677 473.297C512.009 468.114 512.009 468.114 515.148 467.414C516.423 467.389 517.698 467.365 519.011 467.34C521.18 467.28 521.18 467.28 523.392 467.219C524.958 467.203 526.523 467.186 528.136 467.17C530.546 467.117 530.546 467.117 533.004 467.063C536.407 466.994 539.81 466.936 543.214 466.89C548.421 466.819 553.627 466.711 558.834 466.596C562.137 466.533 565.441 466.472 568.745 466.414C570.304 466.383 571.862 466.353 573.468 466.321C574.924 466.303 576.381 466.286 577.881 466.267C579.159 466.248 580.436 466.229 581.752 466.21C585.368 466.389 588.508 467.078 591.978 468.114ZM546.996 514.758C543.622 518.429 543.622 518.429 541.998 523.396C543.491 530.052 544.749 531.632 550.328 535.488C554.691 535.217 554.691 535.217 558.658 533.761C561.014 528.874 560.855 525.341 560.324 519.94C557.569 516.502 557.569 516.502 553.66 514.758C551.461 514.758 549.262 514.758 546.996 514.758Z" fill="#E7B008"/>
<path d="M938.509 229.714C939.334 233.99 939.334 233.99 940.175 238.352C933.008 243.191 925.544 246.37 917.626 249.601C915.543 250.461 915.543 250.461 913.419 251.338C908.977 253.171 904.532 254.993 900.087 256.815C895.751 258.6 891.416 260.387 887.082 262.175C884.189 263.366 881.294 264.554 878.399 265.739C870.872 268.822 863.366 271.949 855.886 275.154C854.376 275.795 852.867 276.437 851.311 277.098C848.432 278.324 845.558 279.561 842.69 280.812C830.454 285.997 830.454 285.997 823.554 284.995C821.888 283.268 821.888 283.268 821.784 278.841C821.819 277.451 821.853 276.062 821.888 274.63C850.476 258.638 881.428 246.893 911.629 234.616C914.049 233.631 916.463 232.631 918.872 231.617C926.239 228.592 930.76 227.504 938.509 229.714Z" fill="#E7B008"/>
<path d="M870.203 570.039C870.753 570.039 871.303 570.039 871.869 570.039C870.408 643.075 831.433 715.96 792.89 774.854C755.905 832.178 742.084 897.297 754.695 965.153C760.201 992.819 766.693 1020.37 775.611 1047.08C777.922 1054.16 779.036 1060.1 778.573 1067.57C776.373 1066.43 774.174 1065.29 771.908 1064.12C773.558 1064.12 775.207 1064.12 776.906 1064.12C776.906 1062.98 776.906 1061.83 776.906 1060.66C775.807 1060.09 774.707 1059.52 773.574 1058.93C772.449 1055.14 772.449 1055.14 771.388 1050.08C769.593 1042.01 767.349 1034.32 764.678 1026.51C760.096 1012.65 756.939 998.581 754.015 984.259C753.163 980.101 752.281 975.95 751.396 971.8C748.192 956.504 745.856 941.597 745.252 925.912C745.156 924.063 745.156 924.063 745.059 922.176C743.075 877.957 754.891 836.564 775.24 798.074C775.829 796.937 776.417 795.801 777.024 794.629C778.84 791.124 780.679 787.632 782.529 784.146C783.053 783.151 783.577 782.156 784.116 781.131C787.769 774.408 791.789 768.018 795.98 761.641C804.746 748.273 812.479 734.597 819.703 720.275C821.48 716.757 823.28 713.253 825.084 709.75C836.211 687.993 845.417 665.777 852.918 642.38C853.562 640.378 854.205 638.377 854.868 636.315C860.96 616.852 865.176 597.251 867.756 576.976C868.537 571.767 868.537 571.767 870.203 570.039Z" fill="#E7B008"/>
<path d="M843.254 169.554C844.45 170.024 845.646 170.493 846.879 170.978C847.992 174.925 847.992 174.925 848.545 179.615C846.859 182.632 846.859 182.632 844.068 185.554C842.994 186.732 841.92 187.91 840.814 189.123C839.516 190.546 838.219 191.969 836.883 193.436C833.545 197.359 830.267 201.334 826.991 205.312C826.126 206.359 825.261 207.406 824.369 208.484C812.057 223.3 812.057 223.3 800.881 239.026C798.587 242.533 796.479 245.745 793.566 248.717C787.944 249.581 787.944 249.581 783.57 248.717C782.171 245.228 782.171 245.228 781.904 240.079C784.356 235.205 787.645 231.069 790.963 226.799C791.878 225.584 792.792 224.369 793.735 223.117C795.576 220.679 797.428 218.25 799.291 215.83C801.587 212.841 803.844 209.827 806.081 206.79C812.559 198.112 812.559 198.112 815.225 195.163C816.324 195.163 817.424 195.163 818.557 195.163C818.941 194.23 819.325 193.297 819.722 192.336C822.546 187.015 826.053 182.782 829.906 178.212C831.326 176.49 832.745 174.769 834.208 172.995C838.549 169.25 838.549 169.25 843.254 169.554Z" fill="#E7B008"/>
<path d="M860.111 322.793C861.528 322.797 862.945 322.801 864.405 322.805C866.806 322.805 866.806 322.805 869.256 322.805C871.867 322.819 871.867 322.819 874.531 322.832C876.303 322.835 878.076 322.837 879.902 322.84C885.59 322.849 891.276 322.871 896.964 322.893C900.809 322.902 904.654 322.91 908.499 322.917C917.947 322.936 927.395 322.965 936.844 323.001C938.718 326.996 938.718 326.996 940.176 331.639C939.076 333.349 937.977 335.059 936.844 336.821C933.43 337.468 933.43 337.468 929.177 337.464C927.587 337.475 925.997 337.486 924.359 337.497C921.777 337.473 921.777 337.473 919.142 337.449C917.38 337.45 915.618 337.451 913.802 337.451C910.071 337.447 906.34 337.431 902.609 337.402C896.883 337.361 891.158 337.367 885.432 337.378C881.813 337.368 878.195 337.356 874.576 337.341C872.855 337.342 871.133 337.344 869.36 337.346C866.974 337.321 866.974 337.321 864.541 337.296C863.138 337.288 861.735 337.28 860.289 337.272C856.875 336.821 856.875 336.821 853.543 333.366C854.746 323.138 854.746 323.138 860.111 322.793Z" fill="#E7B008"/>
<path d="M277.102 438.746C279.332 445.171 278.179 449.719 276.581 456.237C276.111 458.231 275.641 460.224 275.156 462.277C274.47 465.166 274.47 465.166 273.77 468.114C267.223 498.25 265.419 529.378 278.768 557.946C281.693 562.324 284.764 566.389 288.113 570.424C290.43 573.494 290.43 573.494 290.43 576.949C292.629 578.089 294.828 579.23 297.094 580.404C297.094 581.544 297.094 582.685 297.094 583.859C298.486 584.501 298.486 584.501 299.906 585.155C303.758 587.314 303.758 587.314 307.578 590.506C323.873 603.941 342.736 612.819 361.54 621.755C365.148 623.472 368.745 625.21 372.338 626.96C381.344 631.346 390.367 635.684 399.45 639.896C407.231 643.555 414.909 647.412 422.566 651.341C423.683 651.909 424.799 652.477 425.95 653.062C432.794 656.604 439.09 660.521 445.37 665.054C444.82 666.194 444.27 667.334 443.704 668.509C439.305 666.228 434.907 663.948 430.375 661.599C430.375 660.458 430.375 659.318 430.375 658.144C428.417 657.538 426.458 656.932 424.44 656.308C416.653 653.6 409.338 650.161 401.934 646.489C394.216 642.68 386.438 639.028 378.618 635.449C377.566 634.966 376.513 634.483 375.428 633.985C368.997 631.032 368.997 631.032 362.557 628.101C350.897 622.815 339.699 617.337 328.931 610.28C325.449 608.066 321.913 606.203 318.232 604.374C295.319 591.273 276.711 568.134 268.622 542.743C259.778 510.507 265.157 471.807 275.436 440.474C275.986 439.904 276.536 439.333 277.102 438.746Z" fill="#E7B008"/>
<path d="M485.354 252.172C484.804 253.312 484.254 254.452 483.688 255.627C479.818 256.306 475.993 256.504 472.077 256.761C470.961 256.957 469.844 257.153 468.693 257.354C468.144 258.495 467.594 259.635 467.027 260.81C463.679 261.54 460.33 262.268 456.979 262.982C423.672 271.617 391.732 290.173 365.4 312.636C364.075 313.748 364.075 313.748 362.723 314.884C349.175 326.304 337.774 337.971 327.082 352.369C325.301 354.477 325.301 354.477 323.483 356.627C315.179 366.483 308.639 376.812 302.3 388.108C301.526 389.483 300.752 390.858 299.955 392.275C295.367 400.65 291.795 408.91 288.764 418.016C287.664 418.016 286.565 418.016 285.432 418.016C289.365 390.392 311.004 364.896 328.201 344.616C330.24 342.209 332.258 339.783 334.273 337.354C355.351 312.37 380.182 293.042 408.717 278.085C409.999 277.368 411.281 276.651 412.602 275.912C432.882 264.822 461.964 250.984 485.354 252.172Z" fill="#E7B008"/>
<path d="M805.229 490.572C809.936 495.454 808.991 498.655 809.003 505.486C809.01 507.208 809.01 507.208 809.017 508.966C809.024 512.696 809.003 516.426 808.977 520.156C808.973 521.417 808.969 522.678 808.965 523.977C808.897 541.841 808.422 559.347 805.229 576.949C804.949 578.606 804.67 580.263 804.382 581.97C803.562 586.343 803.562 586.343 801.896 592.497C800.247 593.352 800.247 593.352 798.564 594.225C798.762 591.74 798.973 589.257 799.189 586.775C799.305 585.392 799.421 584.009 799.541 582.584C800.23 576.949 800.23 576.949 801.035 573.287C804.5 556.959 803.872 540.66 803.667 524.043C803.621 519.506 803.58 514.969 803.548 510.432C803.528 507.627 803.498 504.822 803.459 502.017C803.431 498.778 803.488 495.538 803.562 492.3C804.112 491.73 804.662 491.16 805.229 490.572Z" fill="#E7B008"/>
<path d="M603.641 255.627C612.34 256.577 620.35 257.831 628.631 260.81C629.181 261.95 629.73 263.09 630.297 264.265C631.637 264.443 632.977 264.621 634.358 264.805C641.307 266.195 646.494 269.046 652.716 272.443C656.619 274.457 660.431 275.994 664.554 277.437C666.444 278.221 668.334 279.005 670.281 279.812C671.106 282.378 671.106 282.378 671.947 284.995C666.124 283.697 660.869 281.499 655.378 279.124C653.445 278.296 651.513 277.467 649.521 276.614C645.489 274.876 641.459 273.135 637.43 271.391C626.303 266.628 615.268 262.334 603.641 259.082C603.641 257.942 603.641 256.802 603.641 255.627Z" fill="#E7B008"/>
<path d="M505.346 321.273C514.159 328.889 522.319 336.952 530.336 345.459C529.236 347.739 528.137 350.02 527.004 352.369C518.757 343.818 510.51 335.267 502.014 326.456C503.113 324.746 504.213 323.036 505.346 321.273Z" fill="#E7B008"/>
<path d="M470.359 576.949C470.909 578.659 471.459 580.37 472.025 582.132C473.125 582.132 474.225 582.132 475.357 582.132C475.735 584.305 476.113 586.479 476.503 588.718C477.82 594.21 478.209 595.559 482.646 599.191C484.089 599.833 485.533 600.474 487.02 601.135C488.291 601.812 489.562 602.489 490.872 603.186C491.8 603.649 492.728 604.113 493.684 604.59C493.134 605.73 492.584 606.87 492.018 608.045C485.387 608.584 481.427 608.673 475.566 605.238C471.365 600.37 470.782 597.199 470.359 590.77C471.459 590.77 472.559 590.77 473.691 590.77C472.592 589.059 471.492 587.349 470.359 585.587C469.81 584.447 469.26 583.307 468.693 582.132C469.243 580.422 469.793 578.711 470.359 576.949Z" fill="#E7B008"/>
<path d="M570.32 544.126C577.885 546.585 582.049 550.555 587.501 556.435C588.972 558.007 590.443 559.579 591.959 561.199C593.065 562.406 594.171 563.613 595.311 564.856C594.761 566.567 594.211 568.277 593.645 570.039C587.26 567.301 583.097 563.075 578.234 558.054C576.748 556.542 575.262 555.03 573.73 553.472C570.32 549.309 570.32 549.309 570.32 544.126Z" fill="#E7B008"/>
<path d="M593.645 454.294C595.311 459.477 595.311 459.477 595.311 466.387C595.807 468.704 596.348 471.014 596.977 473.297C598.076 473.297 599.176 473.297 600.309 473.297C601.958 476.717 603.607 480.138 605.307 483.662C602.531 483.736 599.752 483.732 596.977 483.662C596.427 483.092 595.877 482.522 595.311 481.935C594.761 483.075 594.211 484.215 593.645 485.39C592.545 485.39 591.445 485.39 590.312 485.39C590.862 479.689 591.412 473.988 591.979 468.114C590.329 467.544 588.68 466.974 586.98 466.387C591.77 456.237 591.77 456.237 593.645 454.294Z" fill="#E7B008"/>
<path d="M853.543 262.537C855.192 264.247 856.842 265.958 858.541 267.72C853.32 273.687 847.713 276.225 840.215 278.085C834.384 277.545 834.384 277.545 830.219 276.357C835.797 272.501 841.178 268.843 847.191 265.776C848.383 265.166 849.575 264.556 850.803 263.927C851.707 263.468 852.611 263.01 853.543 262.537Z" fill="#E7B008"/>
<path d="M907.168 245.154C908.663 246.062 908.663 246.062 910.188 246.989C905.421 250.285 901.27 252.178 895.922 254.223C894.305 254.854 892.688 255.484 891.022 256.133C886.863 257.355 886.863 257.355 883.531 255.627C883.531 253.917 883.531 252.206 883.531 250.444C885.387 250.124 885.387 250.124 887.28 249.797C891.567 248.786 894.677 247.39 898.525 245.262C903.523 243.534 903.523 243.534 907.168 245.154Z" fill="#E7B008"/>
<path d="M410.382 345.459C412.582 346.029 414.781 346.599 417.046 347.187C415.397 347.757 413.748 348.327 412.048 348.914C411.86 357.695 411.86 357.695 413.714 366.189C413.165 367.33 412.615 368.47 412.048 369.645C413.079 369.858 414.11 370.072 415.172 370.292C418.713 371.372 418.713 371.372 422.045 374.827C422.045 375.967 422.045 377.107 422.045 378.282C415.527 376.09 411.89 374.334 408.716 367.917C406.888 359.41 406.002 353.175 410.382 345.459Z" fill="#E7B008"/>
<path d="M495.35 355.824C500.945 358.302 504.277 361.341 508.261 366.081C509.283 367.273 510.306 368.464 511.359 369.692C513.676 373.1 513.676 373.1 513.676 378.282C512.576 377.712 511.477 377.142 510.344 376.555C510.344 375.415 510.344 374.274 510.344 373.1C508.145 372.53 505.945 371.959 503.68 371.372C503.68 370.232 503.68 369.092 503.68 367.917C502.58 367.917 501.481 367.917 500.348 367.917C500.348 366.777 500.348 365.637 500.348 364.462C499.248 364.462 498.149 364.462 497.016 364.462C496.466 361.611 495.916 358.761 495.35 355.824Z" fill="#E7B008"/>
<path d="M373.73 435.291C374.83 435.291 375.93 435.291 377.062 435.291C377.163 436.333 377.264 437.375 377.368 438.449C377.508 439.83 377.648 441.211 377.791 442.633C377.994 444.677 377.994 444.677 378.201 446.763C378.689 450.534 379.429 454.082 380.395 457.749C377.271 457.425 377.271 457.425 373.73 456.021C371.44 452.35 371.44 452.35 370.398 447.384C371.856 440.798 371.856 440.798 373.73 435.291Z" fill="#E7B008"/>
<path d="M285.432 430.108C293.678 430.108 301.925 430.108 310.422 430.108C311.521 432.389 312.621 434.669 313.754 437.019C312.689 436.769 311.623 436.52 310.526 436.263C304.992 435.209 299.51 434.684 293.905 434.218C290.43 433.563 290.43 433.563 285.432 430.108Z" fill="#E7B008"/>
<path d="M488.686 442.201C489.235 444.482 489.785 446.762 490.352 449.111C487.053 449.111 483.754 449.111 480.355 449.111C479.874 450.145 479.393 451.178 478.898 452.242C477.023 456.021 477.023 456.021 473.691 461.204C473.691 459.494 473.691 457.784 473.691 456.021C472.592 456.021 471.492 456.021 470.359 456.021C470.359 454.881 470.359 453.741 470.359 452.566C471.459 452.566 472.559 452.566 473.691 452.566C473.691 451.426 473.691 450.286 473.691 449.111C474.791 449.111 475.891 449.111 477.023 449.111C477.023 447.971 477.023 446.831 477.023 445.656C484.937 442.201 484.937 442.201 488.686 442.201Z" fill="#E7B008"/>
<path d="M505.346 576.949C508.782 579.864 508.782 579.864 512.01 583.859C511.741 589.718 511.039 591.777 507.012 595.952C505.912 595.382 504.813 594.812 503.68 594.225C504.229 588.524 504.779 582.823 505.346 576.949Z" fill="#E7B008"/>
<path d="M626.965 456.021C628.614 457.162 630.264 458.302 631.963 459.477C632.678 466.296 632.104 470.9 628.631 476.752C628.081 475.612 627.531 474.472 626.965 473.297C625.865 473.297 624.766 473.297 623.633 473.297C624.732 467.596 625.832 461.895 626.965 456.021Z" fill="#E7B008"/>
<path d="M703.602 386.92C704.632 388.31 705.663 389.699 706.725 391.131C709.835 395.625 709.835 395.625 713.598 397.285C713.598 398.425 713.598 399.566 713.598 400.74C714.697 401.31 715.797 401.88 716.93 402.468C714.014 403.763 714.014 403.763 710.266 404.195C705.732 400.703 703.888 398.266 702.248 392.642C702.093 390.665 702.093 390.665 701.936 388.647C702.485 388.077 703.035 387.507 703.602 386.92Z" fill="#E7B008"/>
<path d="M352.072 533.761C357.57 533.761 363.068 533.761 368.732 533.761C367.083 534.616 367.083 534.616 365.4 535.488C365.4 536.628 365.4 537.769 365.4 538.943C360.452 538.943 355.504 538.943 350.406 538.943C350.956 537.233 351.506 535.523 352.072 533.761Z" fill="#E7B008"/>
<path d="M527.004 545.854C528.103 546.424 529.203 546.994 530.336 547.581C527.316 552.764 527.316 552.764 523.672 557.946C518.674 557.946 518.674 557.946 515.342 556.219C519.19 552.798 523.039 549.378 527.004 545.854Z" fill="#E7B008"/>
<path d="M711.932 464.659C712.481 466.369 713.031 468.08 713.598 469.842C705.03 479.467 705.03 479.467 698.604 480.207C698.916 477.076 698.916 477.076 700.27 473.297C704.33 470.49 704.33 470.49 708.6 468.114C709.699 466.974 710.799 465.834 711.932 464.659Z" fill="#E7B008"/>
<path d="M553.66 690.967C556.959 692.677 556.959 692.677 560.324 694.422C560.324 695.562 560.324 696.702 560.324 697.877C561.389 698.305 562.455 698.732 563.552 699.173C566.988 701.332 566.988 701.332 568.036 704.922C568.342 706.566 568.342 706.566 568.654 708.242C566.768 706.674 564.897 705.086 563.031 703.491C561.988 702.61 560.944 701.728 559.869 700.819C556.854 697.735 555.324 694.976 553.66 690.967Z" fill="#E7B008"/>
<path d="M675.279 509.575C680.227 509.575 685.175 509.575 690.273 509.575C688.624 510.43 688.624 510.43 686.941 511.303C686.941 512.443 686.941 513.583 686.941 514.758C683.643 514.758 680.344 514.758 676.945 514.758C676.396 513.048 675.846 511.337 675.279 509.575Z" fill="#E7B008"/>
<path d="M442.037 367.917C441.487 370.767 440.938 373.618 440.371 376.555C437.622 377.125 434.873 377.695 432.041 378.282C431.491 376.572 430.941 374.862 430.375 373.1C438.289 367.917 438.289 367.917 442.037 367.917Z" fill="#E7B008"/>
<path d="M570.32 538.943C572.519 539.513 574.719 540.084 576.984 540.671C576.984 541.811 576.984 542.951 576.984 544.126C575.919 544.34 574.854 544.554 573.756 544.774C572.623 545.13 571.489 545.486 570.32 545.854C569.771 546.994 569.221 548.134 568.654 549.309C567.005 548.739 565.356 548.168 563.656 547.581C565.855 544.731 568.055 541.88 570.32 538.943Z" fill="#E7B008"/>
<path d="M505.346 450.839C506.995 451.979 508.644 453.119 510.344 454.294C510.344 456.004 510.344 457.714 510.344 459.477C509.244 459.477 508.145 459.477 507.012 459.477C506.462 460.617 505.912 461.757 505.346 462.932C504.246 459.511 503.147 456.091 502.014 452.566C503.113 451.996 504.213 451.426 505.346 450.839Z" fill="#E7B008"/>
</g>
<defs>
<clipPath id="clip0_1123_413">
<rect width="1037" height="1121" fill="white"/>
</clipPath>
</defs>
</svg>
