<svg width="977" height="871" viewBox="0 0 977 871" fill="none" xmlns="http://www.w3.org/2000/svg">
<g clip-path="url(#clip0_1123_365)">
<path d="M103.047 108.308C105.025 108.303 105.025 108.303 107.043 108.299C111.485 108.29 115.927 108.293 120.369 108.295C123.577 108.291 126.785 108.286 129.993 108.281C138.826 108.269 147.66 108.267 156.493 108.266C166.013 108.263 175.533 108.252 185.053 108.242C206.965 108.22 228.876 108.212 250.787 108.205C261.616 108.202 272.444 108.196 283.272 108.191C320.341 108.172 357.409 108.156 394.478 108.151C396.804 108.15 399.131 108.15 401.458 108.15C403.791 108.149 406.123 108.149 408.456 108.149C413.135 108.148 417.815 108.147 422.494 108.147C423.654 108.146 424.815 108.146 426.01 108.146C463.629 108.141 501.247 108.117 538.866 108.083C578.641 108.046 618.416 108.026 658.191 108.024C662.557 108.024 666.924 108.023 671.291 108.023C672.366 108.023 673.442 108.023 674.55 108.023C691.848 108.021 709.147 108.005 726.446 107.983C743.837 107.962 761.227 107.957 778.617 107.969C788.037 107.975 797.457 107.973 806.877 107.952C815.503 107.934 824.128 107.935 832.753 107.953C835.872 107.956 838.99 107.952 842.109 107.939C869.103 107.834 891.073 110.973 911.599 130.47C924.348 144.569 930.882 163.615 930.895 182.537C930.902 185.129 930.902 185.129 930.909 187.774C930.907 189.659 930.905 191.544 930.902 193.486C930.905 195.52 930.909 197.553 930.912 199.587C930.921 205.167 930.921 210.748 930.92 216.328C930.919 222.35 930.927 228.372 930.934 234.393C930.946 246.189 930.951 257.985 930.951 269.781C930.952 279.371 930.955 288.962 930.96 298.552C930.973 325.752 930.98 352.952 930.978 380.152C930.978 382.351 930.978 382.351 930.978 384.595C930.978 386.797 930.978 386.797 930.978 389.043C930.977 412.826 930.991 436.608 931.012 460.391C931.033 484.819 931.043 509.248 931.042 533.676C931.042 547.387 931.046 561.098 931.062 574.809C931.075 586.485 931.078 598.161 931.068 609.837C931.063 615.791 931.063 621.744 931.076 627.698C931.088 633.156 931.085 638.614 931.073 644.072C931.069 646.965 931.08 649.858 931.092 652.751C931.002 676.132 926.227 696.347 910.181 713.927C894.544 728.939 876.396 734.989 855.207 734.875C853.879 734.879 852.551 734.884 851.182 734.889C846.744 734.901 842.306 734.893 837.867 734.884C834.649 734.888 831.43 734.894 828.211 734.901C819.374 734.916 810.537 734.913 801.7 734.907C792.166 734.903 782.632 734.916 773.098 734.927C754.424 734.947 735.75 734.949 717.075 734.946C701.898 734.943 686.72 734.945 671.543 734.952C669.362 734.953 667.18 734.954 664.999 734.955C661.712 734.956 658.425 734.957 655.138 734.959C624.58 734.971 594.022 734.978 563.464 734.971C562.313 734.971 561.161 734.971 559.974 734.971C554.137 734.969 548.3 734.968 542.463 734.967C540.724 734.967 540.724 734.967 538.95 734.966C536.605 734.966 534.261 734.965 531.917 734.965C495.437 734.957 458.958 734.968 422.479 734.996C381.485 735.027 340.49 735.042 299.496 735.036C295.124 735.036 290.752 735.035 286.38 735.035C284.766 735.035 284.766 735.035 283.119 735.034C266.875 735.033 250.632 735.043 234.389 735.058C215.914 735.076 197.44 735.078 178.965 735.06C169.539 735.051 160.113 735.05 150.687 735.068C142.057 735.084 133.426 735.079 124.796 735.058C121.675 735.054 118.555 735.058 115.435 735.07C89.5851 735.161 68.1163 732.809 48.3188 714.008C34.8615 699.38 28.1248 681.735 28.1006 661.854C28.095 660.105 28.0893 658.356 28.0835 656.554C28.0848 654.646 28.086 652.738 28.0874 650.772C28.0836 648.714 28.0791 646.656 28.0741 644.598C28.0623 638.95 28.0596 633.302 28.0585 627.654C28.0558 621.559 28.0447 615.464 28.0348 609.37C28.0149 596.047 28.006 582.724 27.9995 569.4C27.9955 561.079 27.9893 552.757 27.9826 544.435C27.9647 521.385 27.9496 498.336 27.9446 475.287C27.9443 473.812 27.944 472.337 27.9436 470.818C27.9433 469.34 27.943 467.862 27.9427 466.339C27.942 463.344 27.9413 460.348 27.9407 457.353C27.9404 455.868 27.94 454.382 27.9397 452.851C27.9339 428.781 27.9082 404.711 27.874 380.64C27.8392 355.917 27.8209 331.194 27.8191 306.47C27.8178 292.593 27.8094 278.716 27.7827 264.839C27.76 253.022 27.7525 241.205 27.7646 229.388C27.7704 223.363 27.7691 217.337 27.7484 211.311C27.7296 205.787 27.7315 200.263 27.7493 194.739C27.7535 191.811 27.7361 188.883 27.7178 185.955C27.8363 164.322 33.9991 145.11 48.8125 129.039C64.3501 114.859 82.4491 108.264 103.047 108.308ZM90.0223 178.223C83.445 187.343 83.3043 194.91 83.387 205.984C83.3768 207.728 83.3665 209.472 83.356 211.269C83.3338 216.091 83.3379 220.912 83.3533 225.734C83.3636 230.942 83.3401 236.15 83.321 241.357C83.2892 251.553 83.2894 261.748 83.3013 271.943C83.3106 280.232 83.3089 288.52 83.2995 296.809C83.2981 297.989 83.2968 299.17 83.2954 300.386C83.2927 302.784 83.29 305.182 83.2872 307.58C83.2629 330.063 83.2757 352.545 83.3004 375.027C83.322 395.584 83.3005 416.14 83.2581 436.697C83.2149 457.816 83.1988 478.936 83.2129 500.055C83.2144 502.446 83.2158 504.836 83.2172 507.226C83.2179 508.402 83.2186 509.578 83.2194 510.789C83.2225 519.064 83.2082 527.338 83.1867 535.612C83.1609 545.702 83.1612 555.792 83.1946 565.882C83.2109 571.027 83.2157 576.172 83.1883 581.317C83.1649 586.902 83.1868 592.486 83.2201 598.071C83.2027 599.687 83.1853 601.303 83.1674 602.969C83.3148 615.143 86.4022 623.9 94.8908 632.699C104.409 638.508 112.704 640.217 123.604 640.105C124.867 640.11 126.13 640.114 127.432 640.119C131.658 640.13 135.884 640.109 140.111 640.088C143.174 640.089 146.237 640.093 149.3 640.097C157.713 640.105 166.126 640.084 174.54 640.059C183.615 640.037 192.689 640.041 201.764 640.041C219.541 640.036 237.317 640.007 255.093 639.969C269.538 639.938 283.983 639.914 298.429 639.897C300.504 639.894 302.58 639.891 304.656 639.889C305.686 639.887 306.716 639.886 307.778 639.885C308.81 639.883 309.842 639.882 310.906 639.881C311.94 639.88 312.974 639.878 314.039 639.877C343.117 639.84 372.195 639.794 401.272 639.729C402.916 639.725 402.916 639.725 404.593 639.722C410.148 639.709 415.703 639.697 421.258 639.684C422.361 639.682 423.465 639.679 424.601 639.677C426.832 639.671 429.063 639.666 431.294 639.661C466.017 639.583 500.739 639.536 535.462 639.514C574.476 639.489 613.489 639.44 652.503 639.354C656.662 639.345 660.821 639.336 664.98 639.327C666.004 639.325 667.028 639.323 668.083 639.321C683.546 639.288 699.009 639.275 714.472 639.271C732.055 639.267 749.637 639.237 767.219 639.174C776.192 639.142 785.165 639.123 794.138 639.135C802.35 639.146 810.561 639.123 818.773 639.073C821.746 639.061 824.719 639.061 827.692 639.075C831.73 639.092 835.766 639.064 839.805 639.024C841.54 639.048 841.54 639.048 843.31 639.072C852.948 638.896 859.904 635.202 866.819 628.467C872.629 621.824 875.221 615.658 875.23 606.856C875.239 605.375 875.247 603.894 875.256 602.368C875.251 600.751 875.245 599.135 875.239 597.47C875.245 595.744 875.251 594.019 875.256 592.241C875.269 587.458 875.268 582.675 875.262 577.891C875.258 572.73 875.272 567.569 875.283 562.408C875.301 552.298 875.304 542.189 875.301 532.08C875.298 523.862 875.301 515.645 875.307 507.428C875.308 506.258 875.309 505.089 875.309 503.884C875.311 501.509 875.313 499.133 875.315 496.758C875.331 474.477 875.328 452.197 875.319 429.916C875.311 409.535 875.328 389.154 875.356 368.772C875.384 347.844 875.396 326.916 875.391 305.987C875.388 294.238 875.391 282.489 875.412 270.739C875.43 260.737 875.432 250.734 875.414 240.731C875.405 235.628 875.404 230.526 875.421 225.423C875.437 219.889 875.425 214.356 875.406 208.822C875.417 207.212 875.428 205.603 875.439 203.944C875.362 193.112 874.252 185.652 867.048 177.203C856.192 167.774 848.586 166.129 834.561 166.161C832.688 166.156 832.688 166.156 830.778 166.151C826.576 166.143 822.375 166.145 818.173 166.147C815.138 166.143 812.102 166.139 809.067 166.134C800.711 166.122 792.355 166.119 783.999 166.118C774.993 166.115 765.987 166.104 756.981 166.094C736.256 166.073 715.53 166.064 694.805 166.058C684.564 166.054 674.323 166.049 664.082 166.043C629.028 166.024 593.974 166.008 558.919 166.003C556.719 166.003 554.519 166.002 552.319 166.002C550.113 166.002 547.907 166.001 545.702 166.001C541.277 166 536.852 166 532.428 165.999C531.33 165.999 530.233 165.999 529.103 165.999C493.521 165.993 457.939 165.97 422.356 165.935C384.739 165.899 347.121 165.878 309.504 165.876C305.375 165.876 301.246 165.876 297.118 165.875C296.101 165.875 295.085 165.875 294.037 165.875C277.672 165.874 261.307 165.857 244.942 165.836C228.497 165.814 212.052 165.81 195.607 165.821C186.696 165.827 177.786 165.826 168.875 165.805C160.72 165.786 152.566 165.788 144.411 165.806C141.459 165.809 138.507 165.804 135.554 165.791C131.544 165.775 127.535 165.786 123.524 165.804C122.376 165.792 121.228 165.781 120.044 165.77C108.087 165.885 98.6355 169.529 90.0223 178.223Z" fill="#3B82F6"/>
<path d="M636.761 276.127C636.761 324.1 636.761 372.073 636.761 421.5C683.807 421.5 730.853 421.5 779.324 421.5C784.373 446.977 772.17 477.475 758.748 498.637C735.858 532.234 703.981 554.584 664.203 562.649C627.137 568.961 588.153 561.568 556.833 540.189C549.194 534.263 542.281 527.628 535.349 520.888C534.273 519.913 533.197 518.937 532.089 517.933C511.757 498.959 501.234 472.003 495.667 445.234C495.383 443.881 495.098 442.527 494.806 441.132C489.713 400.984 499.262 363.656 523.5 331.476C537.59 313.228 554.436 299.766 575.032 289.478C576.296 288.824 577.559 288.17 578.861 287.496C595.749 279.187 617.96 271.383 636.761 276.127Z" fill="#3B82F6"/>
<path d="M668.825 236.046C711.299 238.415 748.458 256.532 777.487 287.809C803.045 317.761 817.746 353.45 817.537 393.315C813.184 397.709 802.889 396.459 797.08 396.483C796.022 396.48 794.965 396.477 793.875 396.474C792.159 396.478 792.159 396.478 790.408 396.482C786.651 396.488 782.893 396.484 779.135 396.479C776.497 396.48 773.859 396.482 771.221 396.483C765.695 396.486 760.169 396.482 754.643 396.476C747.615 396.467 740.587 396.472 733.559 396.481C728.108 396.486 722.657 396.484 717.206 396.481C714.618 396.48 712.03 396.481 709.442 396.484C678.285 396.517 678.285 396.517 664.686 394.799C662.422 392.514 663.031 390.417 663.029 387.234C663.025 385.923 663.021 384.613 663.017 383.263C663.02 381.814 663.023 380.365 663.026 378.872C663.023 377.355 663.021 375.838 663.018 374.275C663.012 369.234 663.016 364.192 663.021 359.151C663.02 355.664 663.018 352.178 663.017 348.692C663.014 341.374 663.018 334.056 663.024 326.738C663.033 317.335 663.028 307.931 663.019 298.528C663.014 291.326 663.016 284.123 663.019 276.921C663.02 273.452 663.019 269.984 663.016 266.516C663.012 261.677 663.018 256.839 663.026 252.001C663.021 249.828 663.021 249.828 663.017 247.611C663.021 246.301 663.025 244.99 663.029 243.64C663.03 242.495 663.031 241.349 663.031 240.169C663.348 235.692 664.348 236.077 668.825 236.046Z" fill="#3B82F6"/>
<path d="M399.86 271.306C401.729 271.275 403.598 271.245 405.523 271.213C407.332 271.205 409.14 271.198 411.003 271.19C413.478 271.169 413.478 271.169 416.003 271.148C421.505 271.766 424.883 273.098 429.53 276.127C434.12 282.184 434.492 286.831 434.499 294.354C434.509 295.964 434.509 295.964 434.52 297.606C434.537 301.195 434.523 304.782 434.509 308.371C434.515 310.946 434.523 313.522 434.533 316.098C434.553 323.089 434.545 330.08 434.531 337.07C434.52 344.386 434.53 351.702 434.537 359.018C434.545 371.303 434.535 383.589 434.514 395.874C434.49 410.079 434.498 424.283 434.522 438.487C434.542 450.682 434.545 462.877 434.533 475.072C434.526 482.355 434.525 489.639 434.54 496.923C434.553 503.77 434.544 510.618 434.518 517.465C434.512 519.979 434.514 522.492 434.524 525.005C434.536 528.436 434.521 531.865 434.499 535.296C434.497 537.215 434.496 539.135 434.494 541.113C433.736 547.933 431.33 551.705 426.59 556.489C422.778 556.858 419.128 557.048 415.309 557.092C414.189 557.109 413.069 557.126 411.915 557.143C409.541 557.171 407.168 557.191 404.795 557.202C401.174 557.231 397.558 557.323 393.938 557.416C391.631 557.436 389.324 557.451 387.017 557.463C385.939 557.499 384.861 557.536 383.75 557.574C377.834 557.522 375.512 556.838 371.19 552.67C367.149 547.412 366.878 543.1 366.868 536.432C366.851 534.793 366.851 534.793 366.833 533.12C366.804 529.475 366.827 525.831 366.85 522.185C366.84 519.565 366.827 516.945 366.811 514.326C366.778 507.221 366.791 500.118 366.814 493.013C366.833 485.577 366.815 478.14 366.804 470.704C366.791 458.217 366.808 445.731 366.843 433.245C366.883 418.809 366.87 404.374 366.83 389.937C366.796 377.541 366.792 365.145 366.811 352.748C366.822 345.345 366.824 337.942 366.8 330.539C366.778 323.58 366.793 316.622 366.836 309.664C366.845 307.11 366.843 304.556 366.826 302.002C366.806 298.515 366.831 295.032 366.868 291.546C366.871 289.595 366.874 287.645 366.876 285.635C368.037 279.288 370.203 277.121 375.15 273.16C383.067 270.496 391.574 271.339 399.86 271.306Z" fill="#3B82F6"/>
<path d="M306.58 357.632C314.24 357.491 318.532 358.542 325.179 362.164C328.609 367.358 328.759 371.235 329.018 377.255C329.073 378.357 329.128 379.459 329.185 380.595C329.89 396.313 329.86 412.051 329.886 427.781C329.892 430.286 329.892 430.286 329.899 432.841C329.921 441.641 329.934 450.44 329.941 459.24C329.949 468.313 329.984 477.386 330.026 486.459C330.053 493.465 330.061 500.472 330.063 507.479C330.068 510.826 330.08 514.174 330.099 517.521C330.124 522.182 330.121 526.841 330.112 531.502C330.132 533.566 330.132 533.566 330.153 535.672C330.107 542.818 329.889 547.784 325.179 553.523C319.854 557.105 315.83 556.993 309.666 557.04C308.581 557.053 307.495 557.067 306.377 557.08C304.081 557.102 301.786 557.115 299.491 557.121C295.99 557.138 292.492 557.211 288.992 557.286C286.759 557.3 284.526 557.311 282.292 557.318C281.251 557.347 280.21 557.376 279.137 557.406C273.714 557.356 270.945 556.593 266.471 553.435C262.788 548.116 262.376 544.059 262.411 537.785C262.389 536.641 262.366 535.498 262.343 534.319C262.278 530.46 262.266 526.602 262.256 522.742C262.223 519.984 262.188 517.227 262.15 514.469C262.057 506.561 262.021 498.653 261.998 490.744C261.979 484.894 261.95 479.043 261.919 473.193C261.855 460.289 261.819 447.384 261.797 434.48C261.794 433.426 261.792 432.373 261.79 431.287C261.775 424.154 261.777 417.021 261.785 409.888C261.782 408.096 261.779 406.304 261.776 404.458C261.79 399.258 261.869 394.064 261.98 388.865C261.992 387.891 262.003 386.917 262.015 385.913C262.062 382.903 262.159 379.898 262.268 376.89C262.317 375.1 262.367 373.311 262.418 371.467C263.719 365.351 266.041 363.086 270.799 359.197C274.414 358.219 274.414 358.219 278.176 358.149C279.558 358.106 280.94 358.063 282.364 358.018C284.505 358.005 284.505 358.005 286.69 357.992C288.101 357.955 289.511 357.918 290.964 357.879C296.17 357.754 301.375 357.756 306.58 357.632Z" fill="#3B82F6"/>
<path d="M188.185 425.4C191.231 425.394 194.273 425.34 197.318 425.284C200.22 425.275 200.22 425.275 203.18 425.266C204.944 425.254 206.707 425.242 208.524 425.229C214.46 426.093 217.647 428.135 222.298 431.884C224.472 436.272 224.022 440.742 224.051 445.555C224.069 447.209 224.069 447.209 224.088 448.896C224.124 452.553 224.148 456.209 224.17 459.866C224.177 461.114 224.185 462.362 224.193 463.648C224.233 470.254 224.261 476.861 224.282 483.468C224.307 490.292 224.372 497.115 224.447 503.939C224.497 509.186 224.514 514.432 224.522 519.679C224.532 522.195 224.554 524.71 224.59 527.225C224.636 530.748 224.636 534.269 224.625 537.792C224.649 538.829 224.673 539.866 224.698 540.934C224.627 546.563 223.867 548.945 220.381 553.426C215.213 557.421 210.92 557.562 204.655 557.474C203.538 557.481 202.421 557.488 201.269 557.496C198.916 557.501 196.563 557.487 194.21 557.456C190.612 557.416 187.02 557.456 183.422 557.503C181.13 557.498 178.839 557.489 176.547 557.474C175.475 557.489 174.403 557.504 173.299 557.52C167.699 557.39 165.444 556.956 161.408 552.905C157.682 546.718 157.426 543.28 157.37 535.969C157.36 534.927 157.35 533.885 157.341 532.811C157.312 529.354 157.294 525.897 157.28 522.441C157.274 521.26 157.268 520.079 157.262 518.862C157.231 512.61 157.21 506.357 157.196 500.105C157.18 493.653 157.129 487.203 157.071 480.752C157.032 475.786 157.02 470.82 157.015 465.855C157.008 463.477 156.991 461.1 156.963 458.722C156.928 455.388 156.929 452.056 156.939 448.721C156.931 446.826 156.922 444.931 156.913 442.979C157.759 436.891 159.751 433.693 163.509 428.917C170.377 423.784 180.039 425.398 188.185 425.4Z" fill="#3B82F6"/>
</g>
<defs>
<clipPath id="clip0_1123_365">
<rect width="977" height="871" fill="white"/>
</clipPath>
</defs>
</svg>
