<svg width="1178" height="915" viewBox="0 0 1178 915" fill="none" xmlns="http://www.w3.org/2000/svg">
<g clip-path="url(#clip0_1123_382)">
<path d="M258.563 4.20686C259.563 4.20398 260.563 4.2011 261.594 4.19814C264.932 4.19053 268.269 4.19452 271.607 4.19852C274.03 4.19545 276.453 4.19167 278.876 4.18725C285.523 4.17722 292.171 4.17743 298.819 4.17936C305.992 4.1797 313.166 4.17063 320.339 4.16285C334.39 4.14922 348.44 4.1447 362.49 4.14379C373.912 4.14301 385.333 4.13963 396.754 4.13443C429.14 4.11997 461.526 4.1124 493.911 4.11363C495.657 4.1137 497.403 4.11376 499.201 4.11383C501.823 4.11393 501.823 4.11393 504.497 4.11403C532.824 4.1147 561.151 4.09899 589.479 4.07585C618.569 4.05227 647.659 4.04093 676.75 4.04235C693.08 4.04289 709.41 4.03838 725.741 4.02071C739.644 4.00577 753.547 4.0022 767.451 4.01334C774.542 4.0187 781.634 4.0188 788.725 4.00455C795.222 3.99164 801.719 3.994 808.216 4.0083C810.562 4.01082 812.907 4.00785 815.252 3.99868C838.918 3.9124 858.643 6.62017 876.517 24.4443C891.899 41.2793 894.069 61.3832 894.076 84.0786C894.099 86.7121 894.125 89.3455 894.152 91.979C894.221 99.3968 894.249 106.814 894.271 114.232C894.295 120.827 894.341 127.421 894.386 134.015C894.56 159.621 894.626 185.227 894.679 210.834C894.687 214.632 894.696 218.429 894.704 222.227C894.892 307.934 894.911 393.64 894.887 479.347C894.88 504.732 894.882 530.118 894.889 555.503C894.897 585.408 894.9 615.313 894.896 645.219C894.895 648.415 894.895 651.611 894.894 654.808C894.894 656.378 894.894 657.949 894.893 659.567C894.892 670.466 894.894 681.365 894.898 692.263C894.902 705.525 894.901 718.786 894.893 732.047C894.889 738.768 894.887 745.488 894.892 752.209C894.903 767.688 894.864 783.166 894.72 798.644C894.698 801.097 894.677 803.55 894.657 806.003C894.594 813.66 894.496 821.316 894.351 828.971C894.31 831.364 894.278 833.756 894.257 836.149C894.049 857.821 890.524 874.907 876.125 890.883C861.39 905.561 845.529 910.78 825.494 910.793C824.499 910.796 823.505 910.799 822.481 910.802C819.164 910.81 815.847 910.806 812.53 910.802C810.122 910.805 807.714 910.809 805.306 910.813C798.7 910.823 792.094 910.823 785.487 910.821C778.358 910.821 771.229 910.83 764.099 910.837C750.135 910.851 736.17 910.856 722.206 910.856C710.852 910.857 699.499 910.861 688.146 910.866C655.947 910.88 623.748 910.888 591.549 910.887C589.814 910.887 588.078 910.887 586.29 910.886C584.552 910.886 582.814 910.886 581.024 910.886C552.869 910.886 524.714 910.901 496.559 910.924C467.64 910.948 438.721 910.959 409.802 910.958C393.57 910.957 377.338 910.962 361.106 910.98C347.285 910.994 333.463 910.998 319.641 910.987C312.593 910.981 305.545 910.981 298.497 910.996C292.036 911.009 285.575 911.006 279.114 910.992C276.786 910.989 274.457 910.992 272.128 911.002C248.914 911.087 225.972 909.779 208.068 892.114C187.498 867.99 189.078 839.309 189.116 808.839C189.114 805.674 189.111 802.509 189.108 799.344C189.102 790.679 189.105 782.014 189.11 773.349C189.113 763.992 189.108 754.634 189.104 745.277C189.097 726.959 189.098 708.64 189.103 690.321C189.106 675.432 189.107 660.543 189.105 645.653C189.105 643.533 189.105 641.413 189.104 639.229C189.104 634.922 189.103 630.615 189.103 626.308C189.099 587.084 189.103 547.859 189.111 508.634C189.118 472.848 189.118 437.061 189.11 401.274C189.102 361.042 189.099 320.81 189.104 280.578C189.104 276.287 189.105 271.996 189.105 267.705C189.105 265.594 189.106 263.483 189.106 261.308C189.107 246.438 189.105 231.569 189.101 216.699C189.097 198.575 189.098 180.452 189.106 162.328C189.11 153.083 189.112 143.838 189.107 134.593C189.102 126.126 189.105 117.659 189.113 109.191C189.115 106.133 189.114 103.074 189.11 100.015C189.047 44.4134 189.047 44.4135 208.696 22.7963C223.334 8.98245 239.208 4.21948 258.563 4.20686ZM245 65.1573C241.228 70.9913 241.473 76.9348 241.516 83.759C241.512 84.9804 241.507 86.2018 241.503 87.4602C241.492 91.5756 241.502 95.6907 241.513 99.8062C241.509 102.777 241.504 105.749 241.498 108.72C241.485 116.903 241.492 125.086 241.501 133.268C241.508 142.086 241.498 150.905 241.489 159.723C241.475 177.005 241.478 194.288 241.487 211.57C241.494 225.614 241.495 239.658 241.492 253.701C241.491 255.698 241.491 257.694 241.49 259.751C241.489 263.806 241.488 267.861 241.487 271.917C241.479 309.975 241.489 348.032 241.505 386.09C241.519 418.762 241.517 451.433 241.502 484.104C241.486 522.018 241.479 559.931 241.489 597.845C241.49 601.887 241.491 605.928 241.492 609.97C241.492 611.958 241.493 613.947 241.493 615.996C241.496 630.025 241.491 644.053 241.484 658.082C241.475 675.176 241.478 692.27 241.494 709.364C241.502 718.089 241.506 726.814 241.495 735.539C241.486 743.523 241.491 751.506 241.508 759.489C241.511 762.381 241.509 765.273 241.502 768.165C241.493 772.09 241.502 776.014 241.516 779.938C241.509 781.067 241.502 782.195 241.495 783.358C241.559 792.118 242.605 799.298 248.093 806.033C253.409 810.793 256.751 810.654 263.622 810.669C266.63 810.682 266.63 810.682 269.698 810.695C271.944 810.696 274.19 810.696 276.436 810.697C278.806 810.704 281.175 810.711 283.545 810.719C290.081 810.739 296.617 810.748 303.153 810.755C310.193 810.765 317.232 810.784 324.272 810.802C341.285 810.842 358.298 810.866 375.311 810.887C380.113 810.893 384.916 810.9 389.719 810.906C419.525 810.948 449.331 810.984 479.137 811.005C486.044 811.009 492.951 811.014 499.858 811.019C502.433 811.021 502.433 811.021 505.06 811.023C532.882 811.044 560.703 811.098 588.525 811.167C617.07 811.236 645.614 811.275 674.159 811.283C690.194 811.289 706.228 811.308 722.263 811.362C735.916 811.408 749.57 811.427 763.223 811.408C770.192 811.4 777.16 811.404 784.129 811.445C790.507 811.482 796.884 811.481 803.262 811.45C805.571 811.445 807.88 811.454 810.189 811.479C823.764 812.159 823.764 812.159 835.696 806.483C840.786 799.94 840.775 795.511 840.77 787.326C840.778 785.501 840.778 785.501 840.786 783.638C840.802 779.518 840.807 775.397 840.812 771.277C840.821 768.309 840.831 765.342 840.842 762.375C840.869 754.188 840.886 746.001 840.902 737.814C840.921 728.997 840.948 720.18 840.975 711.363C841.025 694.075 841.066 676.787 841.104 659.499C841.135 645.449 841.169 631.4 841.204 617.351C841.303 577.549 841.396 537.747 841.48 497.945C841.487 494.723 841.487 494.723 841.494 491.436C841.501 488.211 841.501 488.211 841.508 484.92C841.582 450.072 841.672 415.224 841.769 380.376C841.868 344.624 841.956 308.872 842.031 273.12C842.074 253.036 842.121 232.952 842.181 212.869C842.232 195.767 842.272 178.665 842.299 161.564C842.312 152.835 842.331 144.106 842.363 135.377C842.393 127.389 842.408 119.4 842.411 111.412C842.415 108.52 842.424 105.627 842.439 102.735C842.458 98.8065 842.459 94.8784 842.454 90.9498C842.469 89.2622 842.469 89.2622 842.485 87.5405C842.445 79.2243 841.675 70.7191 836.969 63.8235C830.52 59.0073 824.545 58.1789 816.789 58.1685C814.792 58.158 812.795 58.1474 810.737 58.1365C808.524 58.1413 806.311 58.1464 804.098 58.1519C801.744 58.1457 799.391 58.1382 797.038 58.1293C790.568 58.1092 784.098 58.1097 777.629 58.1136C770.652 58.1142 763.676 58.0961 756.7 58.0805C743.031 58.0533 729.362 58.0442 715.694 58.0424C704.585 58.0408 693.476 58.0341 682.368 58.0237C650.882 57.9948 619.396 57.9796 587.91 57.9821C586.212 57.9822 584.514 57.9824 582.765 57.9825C581.065 57.9826 579.366 57.9828 577.614 57.9829C550.059 57.9842 522.504 57.9528 494.949 57.9065C466.664 57.8594 438.38 57.8367 410.095 57.8395C394.212 57.8406 378.329 57.8316 362.445 57.7963C348.923 57.7664 335.402 57.7592 321.88 57.7815C314.98 57.7922 308.08 57.7924 301.18 57.7639C294.863 57.7382 288.547 57.7427 282.23 57.7714C279.945 57.7765 277.661 57.7705 275.376 57.7522C259.004 57.3693 259.004 57.3693 245 65.1573ZM522.929 844.168C518.61 851.221 517.279 857.982 518.796 866.259C520.919 872.295 523.799 876.73 528.561 880.828C535.356 883.847 541.027 884.862 548.284 883.291C555.051 879.929 560.276 875.87 564.333 869.132C566.063 860.154 564.869 852.518 561.142 844.302C555.364 837.525 549.664 835.47 541.226 834.35C533.555 835.368 528.036 837.871 522.929 844.168Z" fill="#10B981"/>
<path d="M758.563 201.41C758.783 241.389 758.239 281.289 757.016 321.247C751.622 319.04 747.238 316.739 742.61 313.039C740.992 311.769 740.992 311.769 739.341 310.474C738.538 309.695 737.734 308.917 736.906 308.114C736.906 307.031 736.906 305.947 736.906 304.831C735.566 304.171 735.566 304.171 734.199 303.497C730.719 301.548 730.719 301.548 727.432 298.88C724.715 296.299 724.715 296.299 721.438 296.623C718.844 300.174 718.844 300.174 716.12 304.831C715.011 306.638 713.903 308.445 712.761 310.307C711.862 311.776 711.862 311.776 710.945 313.275C707.71 318.512 704.379 323.678 701.038 328.839C700.331 329.933 699.623 331.026 698.895 332.153C692.452 342.06 685.798 351.799 679.124 361.532C673.246 370.133 667.611 378.846 662.167 387.764C659.563 391.836 659.563 391.836 656.795 395.478C651.848 402.083 647.374 409.021 642.837 415.947C640.99 418.758 639.143 421.569 637.296 424.379C636.374 425.785 635.451 427.191 634.501 428.64C631.767 432.802 629.028 436.96 626.287 441.116C625.394 442.47 624.501 443.823 623.581 445.218C621.804 447.908 620.026 450.598 618.246 453.286C613.405 460.604 608.609 467.952 603.863 475.34C602.293 477.771 602.293 477.771 600.691 480.252C598.539 483.584 596.396 486.923 594.261 490.268C593.219 491.876 592.176 493.484 591.101 495.141C590.174 496.584 589.246 498.027 588.291 499.514C584.2 504.94 580.421 509.324 573.898 510.947C563.669 510.898 557.435 508.297 549.058 502.234C547.287 501.02 547.287 501.02 545.481 499.781C542.989 498.071 540.507 496.346 538.032 494.607C531.878 490.304 525.62 486.177 519.377 482.021C512.142 477.178 504.922 472.312 497.739 467.382C495.509 465.866 493.28 464.351 491.05 462.835C490.035 462.128 489.019 461.421 487.973 460.693C482.708 457.132 480.36 455.858 473.938 455.858C471.017 459.644 468.509 463.272 466.01 467.35C463.57 471.259 461.081 475.054 458.469 478.841C457.448 478.841 456.427 478.841 455.375 478.841C455.026 479.99 454.677 481.139 454.318 482.323C451.844 488.064 448.363 492.334 444.45 497.001C438.881 503.807 433.538 510.667 428.498 517.931C423.014 525.834 417.266 533.441 411.386 541.016C404.175 550.32 397.406 559.829 390.893 569.692C387.201 575.265 383.396 580.517 379.107 585.577C376.784 588.456 374.592 591.387 372.412 594.388C371.668 595.41 370.924 596.432 370.158 597.485C368.673 599.533 367.195 601.587 365.726 603.647C361.546 609.4 357.499 614.305 351.734 618.377C343.106 619.394 337.434 618.774 330.078 613.452C325.46 608.164 323.305 603.291 322.44 596.215C322.96 584.26 331.28 576.109 338.285 567.494C342.957 561.63 347.323 555.514 351.734 549.43C353.578 546.908 355.423 544.388 357.269 541.869C358.608 540.043 358.608 540.043 359.973 538.18C364.477 532.049 369.012 525.945 373.545 519.839C378.148 513.631 382.693 507.379 387.216 501.105C392.825 493.327 398.546 485.654 404.328 478.02C413.401 466.039 422.24 453.882 431.023 441.661C435.506 435.428 440.017 429.221 444.547 423.026C446.398 420.462 446.398 420.462 448.287 417.845C449.478 416.237 450.668 414.628 451.895 412.971C452.939 411.545 453.984 410.119 455.061 408.649C459.203 404.175 462.098 401.991 467.75 400.044C477.62 400.572 485.344 404.978 493.37 410.714C495.529 412.2 497.688 413.686 499.848 415.171C500.936 415.93 502.025 416.69 503.147 417.472C508.349 421.079 513.62 424.566 518.894 428.054C520.409 429.062 520.409 429.062 521.956 430.09C530.181 435.546 538.485 440.856 546.84 446.083C551.625 449.094 556.195 452.198 560.563 455.858C565.77 453.553 568.218 451.087 571.385 446.169C572.238 444.859 573.092 443.548 573.972 442.198C574.875 440.781 575.778 439.364 576.708 437.903C577.659 436.436 578.61 434.969 579.59 433.457C582.542 428.896 585.475 424.321 588.406 419.743C590.152 417.032 591.898 414.322 593.645 411.612C596.151 407.724 598.657 403.836 601.159 399.945C612.112 382.924 623.327 366.106 634.746 349.434C642.311 338.386 649.681 327.265 656.738 315.845C664.387 303.55 672.617 291.692 680.814 279.805C684.907 274.054 684.907 274.054 685.859 267.074C685.04 266.594 684.221 266.114 683.377 265.619C679.659 263.439 675.943 261.255 672.228 259.071C670.938 258.316 669.649 257.56 668.321 256.782C667.08 256.052 665.839 255.322 664.56 254.57C663.417 253.899 662.275 253.229 661.098 252.538C658.46 250.929 655.907 249.166 653.375 247.375C653.375 245.75 653.375 244.125 653.375 242.45C666.319 236.852 679.275 231.463 692.5 226.643C699 224.092 705.369 221.275 711.758 218.428C720.182 214.678 728.635 211.007 737.1 207.361C738.834 206.601 740.569 205.842 742.357 205.059C744.008 204.35 745.659 203.641 747.36 202.911C749.588 201.944 749.588 201.944 751.862 200.959C755.469 199.769 755.469 199.769 758.563 201.41Z" fill="#10B981"/>
<path d="M258.563 4.20686C259.563 4.20398 260.564 4.2011 261.594 4.19814C264.932 4.19053 268.27 4.19452 271.608 4.19852C274.03 4.19545 276.453 4.19167 278.876 4.18725C285.524 4.17722 292.172 4.17743 298.819 4.17936C305.993 4.1797 313.166 4.17063 320.34 4.16285C334.39 4.14922 348.441 4.1447 362.491 4.14379C373.912 4.14301 385.333 4.13963 396.755 4.13443C429.14 4.11997 461.526 4.1124 493.912 4.11363C495.657 4.1137 497.403 4.11376 499.202 4.11383C501.823 4.11393 501.823 4.11393 504.498 4.11403C532.825 4.1147 561.152 4.09899 589.479 4.07585C618.57 4.05227 647.66 4.04093 676.75 4.04235C693.081 4.04289 709.411 4.03838 725.741 4.02071C739.645 4.00577 753.548 4.0022 767.451 4.01334C774.543 4.0187 781.634 4.0188 788.726 4.00455C795.223 3.99164 801.72 3.994 808.217 4.0083C810.562 4.01082 812.907 4.00785 815.253 3.99868C838.95 3.91229 858.577 6.65147 876.512 24.4186C884.008 32.6752 888.532 41.0144 891.594 52.0245C890.929 55.6988 890.929 55.6988 890.047 58.5909C886.136 54.2594 885.068 50.9683 884.536 45.1503C884.313 43.0849 884.09 41.0196 883.86 38.8917C882.839 38.3499 881.818 37.8082 880.766 37.2501C876.125 31.3782 876.125 31.3782 876.125 27.4004C875.104 27.4004 874.083 27.4004 873.031 27.4004C873.031 26.317 873.031 25.2335 873.031 24.1172C871.659 23.7109 870.288 23.3047 868.874 22.886C863.534 20.7475 860.434 18.0186 856.016 14.2676C849.559 11.3518 844.415 10.8165 837.453 10.9844C836.432 10.4427 835.411 9.90097 834.359 9.34283C830.245 9.19596 826.171 9.15232 822.056 9.18004C820.09 9.18321 820.09 9.18321 818.084 9.18646C813.583 9.19541 809.082 9.21592 804.581 9.23582C801.281 9.24418 797.981 9.25162 794.682 9.25823C787.264 9.27367 779.847 9.29299 772.43 9.31408C759.412 9.34792 746.394 9.35439 733.376 9.35661C731.013 9.35709 728.649 9.35758 726.285 9.35808C722.645 9.35884 719.005 9.3596 715.365 9.36031C662.114 9.37177 608.862 9.45023 555.611 9.55107C548.009 9.56545 540.407 9.57949 532.806 9.59332C531.294 9.59607 529.781 9.59883 528.223 9.60167C503.559 9.64577 478.894 9.66041 454.229 9.66465C428.748 9.66967 403.267 9.70566 377.785 9.77051C362.142 9.80936 346.499 9.82442 330.856 9.80824C320.174 9.79951 309.492 9.82093 298.81 9.86595C292.66 9.89098 286.511 9.90297 280.362 9.87897C274.724 9.85726 269.088 9.87385 263.451 9.91975C260.469 9.9344 257.488 9.90912 254.506 9.88196C235.719 10.1113 221.382 16.4214 207.863 30.2412C203.746 35.2188 202.042 39.1672 200.141 45.4581C199.355 46.7444 198.569 48.0307 197.759 49.356C194.289 58.499 194.821 67.4063 194.831 77.1755C194.817 79.4526 194.801 81.7296 194.784 84.0066C194.74 90.3174 194.726 96.628 194.717 102.939C194.702 109.887 194.661 116.836 194.624 123.784C194.554 137.715 194.511 151.645 194.476 165.577C194.447 177.095 194.408 188.613 194.362 200.131C193.838 333.6 193.8 467.072 193.765 600.542C193.765 602.561 193.765 602.561 193.764 604.621C193.764 605.966 193.764 607.312 193.763 608.698C193.761 618.246 193.757 627.794 193.753 637.342C193.742 666.285 193.735 695.227 193.743 724.17C193.744 726.645 193.744 729.12 193.745 731.596C193.745 732.811 193.746 734.026 193.746 735.277C193.748 743.737 193.746 752.196 193.743 760.655C193.738 771.904 193.741 783.153 193.75 794.402C193.752 798.493 193.751 802.584 193.748 806.675C193.744 812.252 193.749 817.828 193.757 823.405C193.753 825 193.75 826.596 193.746 828.24C193.805 850.244 195.83 865.995 207.875 884.317C208.949 886.482 210.003 888.661 210.969 890.883C211.99 890.883 213.011 890.883 214.063 890.883C214.063 891.966 214.063 893.05 214.063 894.166C215.594 894.166 217.125 894.166 218.703 894.166C218.703 895.25 218.703 896.333 218.703 897.449C219.756 897.89 220.809 898.33 221.894 898.783C227.052 900.996 232.157 903.319 237.266 905.657C231.14 907.824 229.424 906.201 223.731 903.195C207.911 894.376 198.303 881.632 191.923 863.899C188.618 845.724 189.094 827.266 189.116 808.839C189.114 805.674 189.112 802.509 189.109 799.344C189.102 790.679 189.106 782.014 189.11 773.349C189.114 763.992 189.108 754.634 189.104 745.277C189.097 726.958 189.099 708.64 189.103 690.321C189.107 675.432 189.107 660.543 189.106 645.653C189.105 643.533 189.105 641.413 189.105 639.229C189.104 634.922 189.104 630.615 189.103 626.308C189.099 587.084 189.104 547.859 189.112 508.634C189.119 472.848 189.118 437.061 189.111 401.274C189.103 361.042 189.099 320.81 189.104 280.578C189.105 276.287 189.105 271.996 189.106 267.705C189.106 265.594 189.106 263.483 189.106 261.308C189.108 246.438 189.105 231.569 189.102 216.699C189.097 198.575 189.099 180.452 189.107 162.328C189.111 153.083 189.112 143.838 189.107 134.593C189.103 126.126 189.105 117.659 189.114 109.191C189.115 106.133 189.114 103.074 189.111 100.015C189.048 44.4134 189.048 44.4134 208.697 22.7963C223.335 8.98245 239.209 4.21948 258.563 4.20686Z" fill="#10B981"/>
<path d="M288.1 55.1726C290.429 55.1786 292.757 55.184 295.085 55.1886C301.456 55.2035 307.826 55.2288 314.197 55.2559C321.077 55.2833 327.957 55.3009 334.837 55.3198C346.749 55.3537 358.66 55.3938 370.571 55.4381C387.793 55.5021 405.015 55.5568 422.236 55.6093C450.179 55.6947 478.122 55.7876 506.065 55.8852C533.204 55.98 560.344 56.0712 587.484 56.1577C589.158 56.163 590.831 56.1684 592.555 56.1739C600.952 56.2006 609.348 56.2273 617.744 56.2539C687.371 56.4749 756.998 56.7081 826.625 56.9492C826.625 57.491 826.625 58.0327 826.625 58.5908C825.42 58.5924 824.215 58.5941 822.974 58.5957C751.606 58.6913 680.239 58.8124 608.871 58.9667C600.307 58.9852 591.743 59.0035 583.179 59.0217C581.474 59.0253 579.769 59.0289 578.012 59.0326C550.384 59.0908 522.756 59.1315 495.129 59.166C466.792 59.2017 438.455 59.2559 410.119 59.3274C392.625 59.371 375.132 59.4 357.639 59.4106C345.652 59.4192 333.666 59.4458 321.68 59.4866C314.758 59.5097 307.837 59.5247 300.915 59.5184C294.582 59.5128 288.25 59.5297 281.917 59.5647C279.622 59.5734 277.328 59.5737 275.033 59.565C271.92 59.5543 268.807 59.5767 265.694 59.6008C263.963 59.6039 262.232 59.6071 260.448 59.6103C255.264 60.3084 252.404 62.1247 248.093 65.1573C247.072 65.1573 246.051 65.1573 245 65.1573C243.128 71.3537 243.24 77.4804 243.262 83.9147C243.26 85.772 243.26 85.772 243.257 87.6668C243.253 91.8392 243.26 96.0116 243.267 100.184C243.266 103.196 243.265 106.208 243.263 109.22C243.259 117.516 243.265 125.811 243.273 134.107C243.28 143.045 243.278 151.984 243.276 160.923C243.276 176.416 243.28 191.909 243.289 207.402C243.302 229.802 243.306 252.203 243.308 274.603C243.311 310.944 243.321 347.285 243.336 383.626C243.35 418.934 243.361 454.241 243.368 489.548C243.368 490.636 243.368 491.724 243.368 492.845C243.371 504.857 243.373 516.868 243.375 528.88C243.391 619.451 243.418 710.023 243.453 800.595C240.359 798.953 240.359 798.953 238.812 794.028C238.662 790.078 238.599 786.176 238.609 782.225C238.604 780.401 238.604 780.401 238.599 778.54C238.59 774.432 238.593 770.324 238.595 766.217C238.591 763.255 238.586 760.293 238.581 757.331C238.568 749.166 238.566 741.002 238.565 732.837C238.562 724.041 238.55 715.246 238.54 706.45C238.519 687.205 238.509 667.961 238.502 648.716C238.498 636.705 238.492 624.695 238.485 612.684C238.466 579.447 238.45 546.21 238.445 512.973C238.444 510.845 238.444 508.716 238.444 506.524C238.443 504.39 238.443 502.257 238.443 500.059C238.442 495.736 238.441 491.412 238.44 487.089C238.44 484.944 238.44 482.8 238.439 480.59C238.433 445.833 238.406 411.075 238.37 376.318C238.334 340.655 238.314 304.991 238.313 269.328C238.311 249.296 238.302 229.264 238.274 209.231C238.25 192.175 238.242 175.118 238.255 158.061C238.261 149.356 238.26 140.65 238.238 131.945C238.218 123.978 238.22 116.011 238.239 108.043C238.242 105.159 238.237 102.275 238.224 99.3902C238.207 95.4718 238.218 91.5546 238.237 87.6363C238.225 86.5143 238.213 85.3924 238.201 84.2364C238.301 74.5117 240.57 66.9352 246.74 59.6168C258.443 52.5968 275.035 55.1036 288.1 55.1726Z" fill="#10B981"/>
<path d="M779.819 905.607C785.226 905.585 790.633 905.57 796.04 905.557C798.633 905.549 801.226 905.538 803.819 905.525C807.423 905.506 811.027 905.498 814.631 905.492C815.687 905.484 816.743 905.476 817.832 905.467C824.543 905.47 830.851 906.152 837.453 907.299C836.943 908.382 836.432 909.466 835.906 910.582C761.522 910.657 687.137 910.715 612.753 910.75C603.978 910.754 595.203 910.758 586.427 910.762C583.807 910.764 583.807 910.764 581.133 910.765C552.819 910.779 524.505 910.805 496.191 910.835C467.154 910.866 438.116 910.884 409.078 910.891C391.15 910.895 373.223 910.91 355.295 910.936C343.013 910.954 330.731 910.959 318.448 910.955C311.355 910.952 304.261 910.956 297.168 910.973C290.68 910.989 284.191 910.99 277.703 910.979C275.35 910.977 272.997 910.982 270.645 910.992C267.457 911.005 264.269 910.998 261.081 910.986C259.307 910.987 257.533 910.988 255.705 910.99C251.294 910.592 248.733 909.736 245 907.299C310.607 907.088 376.213 906.879 441.82 906.671C449.598 906.647 457.376 906.622 465.154 906.597C467.476 906.59 467.476 906.59 469.846 906.582C494.783 906.503 519.721 906.424 544.658 906.344C570.322 906.261 595.987 906.18 621.651 906.099C637.436 906.049 653.222 905.999 669.007 905.948C679.89 905.912 690.773 905.878 701.657 905.844C707.898 905.824 714.14 905.805 720.381 905.784C732.73 905.744 745.078 905.708 757.426 905.683C764.89 905.667 772.355 905.639 779.819 905.607Z" fill="#10B981"/>
<path d="M840.547 798.953C841.057 800.578 841.568 802.203 842.094 803.878C837.015 809.884 834.152 812.706 826.625 813.728C823.346 813.877 820.063 813.939 816.781 813.943C814.782 813.95 812.783 813.956 810.723 813.962C808.508 813.961 806.293 813.96 804.077 813.958C801.722 813.962 799.366 813.967 797.011 813.973C790.535 813.986 784.059 813.989 777.584 813.99C770.601 813.993 763.619 814.006 756.636 814.017C741.369 814.039 726.102 814.049 710.835 814.056C701.306 814.061 691.777 814.068 682.248 814.075C655.873 814.095 629.498 814.112 603.122 814.118C600.591 814.118 600.591 814.118 598.008 814.119C596.316 814.119 594.624 814.119 592.881 814.12C589.453 814.12 586.024 814.121 582.596 814.122C580.895 814.122 579.194 814.123 577.442 814.123C549.865 814.129 522.288 814.158 494.71 814.196C466.408 814.235 438.106 814.256 409.804 814.258C393.909 814.259 378.014 814.269 362.119 814.298C348.589 814.324 335.059 814.332 321.529 814.319C314.623 814.312 307.717 814.314 300.812 814.337C294.493 814.358 288.175 814.356 281.857 814.336C279.568 814.332 277.279 814.338 274.99 814.352C271.884 814.37 268.778 814.355 265.673 814.338C263.946 814.339 262.219 814.34 260.44 814.341C255.276 813.654 252.318 811.952 248.094 808.803C249.115 808.261 250.136 807.719 251.188 807.161C252.208 807.703 253.229 808.245 254.281 808.803C257.391 808.967 260.505 809.024 263.618 809.032C265.622 809.042 267.626 809.051 269.691 809.061C271.936 809.063 274.181 809.065 276.426 809.066C278.795 809.074 281.163 809.083 283.532 809.092C290.065 809.115 296.598 809.127 303.131 809.138C308.728 809.148 314.326 809.165 319.923 809.181C338.368 809.236 356.813 809.271 375.258 809.301C380.059 809.309 384.861 809.317 389.662 809.326C419.46 809.377 449.259 809.42 479.058 809.448C485.963 809.454 492.868 809.461 499.773 809.468C501.49 809.469 503.206 809.471 504.974 809.473C532.785 809.501 560.595 809.568 588.406 809.652C616.942 809.736 645.478 809.784 674.014 809.796C690.043 809.804 706.071 809.828 722.1 809.894C735.749 809.951 749.398 809.974 763.048 809.953C770.014 809.943 776.979 809.95 783.945 809.999C790.322 810.044 796.698 810.043 803.075 810.006C805.382 810.001 807.689 810.012 809.996 810.042C824.315 810.55 824.315 810.55 836.578 803.803C837.888 802.203 839.198 800.602 840.547 798.953Z" fill="#10B981"/>
<path d="M484.706 404.892C487.675 406.723 490.522 408.678 493.37 410.714C495.529 412.2 497.688 413.686 499.848 415.171C500.936 415.93 502.025 416.69 503.147 417.472C508.349 421.079 513.621 424.565 518.894 428.054C519.905 428.728 520.917 429.402 521.959 430.097C527.136 433.538 532.342 436.911 537.613 440.186C538.658 440.838 539.703 441.489 540.779 442.161C542.748 443.383 544.723 444.595 546.704 445.794C552.82 449.593 557.339 453.678 562.109 459.142C550.902 454.733 540.671 447.838 530.785 440.776C525.468 437.057 519.896 434.141 514.156 431.234C514.156 430.151 514.156 429.067 514.156 427.951C513.103 427.545 512.051 427.139 510.966 426.72C505.542 424.271 500.673 421.272 495.594 418.102C495.594 417.018 495.594 415.935 495.594 414.818C494.669 414.581 493.743 414.344 492.79 414.1C490.085 413.362 487.416 412.473 484.766 411.535C484.766 410.452 484.766 409.368 484.766 408.252C483.234 408.252 481.703 408.252 480.125 408.252C480.125 407.168 480.125 406.085 480.125 404.969C472.057 404.444 465.035 404.581 458.469 409.893C453.431 416.171 449.026 422.863 444.547 429.593C443.027 431.566 441.486 433.522 439.906 435.441C436.552 439.293 436.552 439.293 435.266 444.367C433.752 446.043 432.203 447.684 430.625 449.292C429.094 451.73 429.094 451.73 427.531 454.217C426.51 454.217 425.489 454.217 424.438 454.217C424.069 455.101 423.7 455.986 423.32 456.897C420.81 461.833 417.728 466.003 414.479 470.428C413.803 471.352 413.126 472.276 412.429 473.228C410.251 476.199 408.064 479.162 405.875 482.124C405.144 483.114 404.413 484.104 403.66 485.123C400.145 489.883 396.623 494.637 393.095 499.386C386.314 508.527 379.604 517.726 372.889 526.922C364.888 537.872 356.88 548.813 348.704 559.618C347.134 561.693 345.568 563.771 344.006 565.854C340.928 569.959 337.842 574.018 334.598 577.978C329.275 584.683 327.226 589.595 327.806 598.485C328.943 603.932 331.354 607.609 334.719 611.81C338.318 613.72 340.67 613.779 344.677 613.862C345.887 613.905 347.097 613.947 348.345 613.991C352.512 613.329 353.616 611.771 356.375 608.527C357.396 608.527 358.417 608.527 359.469 608.527C359.852 607.545 360.234 606.564 360.629 605.552C362.816 601.491 365.116 599.607 368.75 597.036C366.537 602.261 363.815 606.195 360.242 610.477C359.301 611.617 358.36 612.758 357.39 613.933C353.406 618.291 351.854 618.368 345.934 618.787C339.59 618.665 335.408 617.309 330.078 613.452C325.46 608.164 323.305 603.291 322.44 596.215C322.96 584.26 331.28 576.109 338.285 567.494C342.957 561.63 347.323 555.514 351.734 549.43C353.578 546.908 355.423 544.388 357.269 541.869C358.162 540.652 359.054 539.434 359.973 538.18C364.477 532.049 369.012 525.945 373.545 519.839C378.148 513.631 382.693 507.379 387.216 501.105C392.825 493.327 398.546 485.654 404.328 478.02C413.401 466.039 422.24 453.882 431.023 441.661C435.506 435.428 440.017 429.221 444.547 423.026C446.398 420.462 446.398 420.462 448.287 417.845C449.478 416.237 450.668 414.628 451.895 412.972C452.939 411.545 453.984 410.119 455.061 408.649C464.51 398.444 473.153 398.934 484.706 404.892Z" fill="#10B981"/>
<path d="M687.406 271.999C688.172 273.624 688.172 273.624 688.953 275.282C688.443 276.366 687.932 277.449 687.406 278.565C686.385 278.565 685.364 278.565 684.312 278.565C683.914 279.767 683.515 280.969 683.104 282.208C680.595 288.285 676.923 292.732 672.953 297.803C670.243 301.442 670.243 301.442 668.807 305.748C667.196 310.024 665.451 312.307 662.463 315.604C654.238 325.222 647.929 336.218 641.357 347.134C640.537 348.478 639.717 349.822 638.873 351.206C638.159 352.4 637.445 353.593 636.71 354.823C636.084 355.661 635.458 356.499 634.812 357.362C633.792 357.362 632.771 357.362 631.719 357.362C631.304 358.886 630.889 360.41 630.462 361.979C628.649 367.143 627.551 368.498 623.984 372.137C622.657 374.024 621.376 375.949 620.135 377.902C619.429 379.005 618.723 380.108 617.996 381.244C617.26 382.403 616.525 383.562 615.767 384.757C610.503 392.982 605.221 401.128 599.422 408.945C597.466 411.865 596.037 414.867 594.594 418.102C593.828 419.727 593.828 419.727 593.047 421.385C592.026 421.385 591.005 421.385 589.953 421.385C589.554 422.559 589.156 423.734 588.745 424.944C586.745 429.874 584.341 433.918 581.445 438.314C580.034 440.488 580.034 440.488 578.593 442.706C577.748 443.796 576.902 444.886 576.031 446.009C575.01 446.009 573.989 446.009 572.938 446.009C574.986 439.948 577.489 435.324 581.155 430.208C586.999 421.865 592.568 413.361 598.074 404.764C610.041 386.123 622.249 367.679 634.746 349.434C641.659 339.339 648.466 329.215 654.922 318.785C660.868 309.182 667.06 299.791 673.388 290.467C674.678 288.558 674.678 288.558 675.995 286.61C676.808 285.42 677.62 284.229 678.457 283.003C679.177 281.947 679.897 280.892 680.638 279.805C682.73 276.972 684.958 274.485 687.406 271.999Z" fill="#10B981"/>
<path d="M367.203 644.643C374.494 647.086 374.494 647.086 376.738 651.337C377.165 652.378 377.592 653.42 378.031 654.492C375.521 658.257 373.007 662.018 370.49 665.778C369.778 666.847 369.067 667.915 368.333 669.017C367.645 670.043 366.957 671.069 366.248 672.127C365.617 673.072 364.985 674.018 364.334 674.992C362.562 677.475 362.562 677.475 359.469 680.758C354.895 680.384 352.43 679.753 348.931 676.551C348.324 675.772 347.718 674.994 347.094 674.191C349.321 667.14 352.657 662.319 357.148 656.647C358.377 655.083 359.605 653.519 360.871 651.908C364.109 647.926 364.109 647.926 367.203 644.643Z" fill="#10B981"/>
<path d="M608.516 513.314C613.876 516.565 613.876 516.565 619.344 519.881C618.337 526.001 615.748 530.306 612.576 535.476C611.17 537.787 611.17 537.787 609.736 540.144C607.364 543.882 604.915 547.5 602.328 551.071C597.108 550.173 594.466 549.34 589.953 546.146C590.929 539.616 594.022 535.13 597.494 529.73C598.575 528.038 599.656 526.345 600.769 524.6C603.286 520.777 605.847 517.019 608.516 513.314Z" fill="#10B981"/>
<path d="M407.422 588.828C410.485 590.995 413.548 593.162 416.703 595.395C415.28 602.813 411.732 607.715 407.615 613.76C406.923 614.813 406.231 615.865 405.518 616.95C400.263 624.74 400.263 624.74 395.047 626.585C390.89 624.225 390.89 624.225 387.312 621.66C388.047 613.324 391.951 608.074 396.497 601.551C397.202 600.505 397.907 599.46 398.633 598.383C403.893 590.701 403.893 590.701 407.422 588.828Z" fill="#10B981"/>
<path d="M492.5 500.182C498.693 502.62 504.278 505.712 509.999 509.21C511.652 510.209 513.305 511.208 515.008 512.237C516.884 513.583 516.884 513.583 518.797 514.956C518.797 516.04 518.797 517.123 518.797 518.239C519.818 518.239 520.839 518.239 521.891 518.239C519.377 527.678 519.377 527.678 514.156 531.372C510.084 528.793 506.026 526.191 501.975 523.574C500.82 522.847 499.666 522.119 498.476 521.369C497.369 520.649 496.263 519.93 495.122 519.188C494.102 518.535 493.081 517.882 492.029 517.208C488.992 514.6 487.807 512.182 486.312 508.39C488.354 505.681 490.396 502.972 492.5 500.182Z" fill="#10B981"/>
<path d="M444.547 534.655C450.251 535.473 453.217 536.462 456.922 541.222C454.554 548.891 450.568 554.39 445.9 560.613C444.815 562.084 444.815 562.084 443.707 563.585C441.933 565.987 440.147 568.38 438.359 570.771C433.344 570.195 431.22 569.848 427.821 565.743C427.215 564.694 426.609 563.644 425.984 562.562C427.065 560.961 428.146 559.359 429.259 557.708C430.681 555.599 432.103 553.489 433.525 551.379C434.237 550.324 434.949 549.269 435.683 548.182C436.37 547.161 437.058 546.14 437.767 545.088C438.399 544.151 439.031 543.214 439.682 542.249C441.343 539.746 442.947 537.202 444.547 534.655Z" fill="#10B981"/>
<path d="M682.766 400.044C687.939 401.232 691.03 403.027 695.141 406.61C692.684 412.097 689.789 417.177 686.729 422.308C685.806 423.868 684.883 425.427 683.932 427.034C681.653 430.562 679.718 433.497 676.578 436.159C671.409 435.758 669.454 435.165 665.75 431.234C665.96 422.992 670.662 417.352 675.128 411.022C675.859 409.963 676.59 408.904 677.342 407.813C679.138 405.214 680.95 402.628 682.766 400.044Z" fill="#10B981"/>
<path d="M721.438 342.588C730.286 346.584 730.286 346.584 732.096 350.469C732.343 355.736 730.273 358.012 727.335 362.185C725.839 364.333 725.839 364.333 724.314 366.526C718.357 374.747 718.357 374.747 715.25 378.703C708.151 377.889 708.151 377.889 704.935 373.701C704.256 372.643 703.576 371.585 702.875 370.495C705.384 366.456 707.899 362.421 710.416 358.388C711.128 357.241 711.84 356.094 712.573 354.913C713.261 353.812 713.949 352.712 714.658 351.578C715.29 350.564 715.922 349.549 716.573 348.504C718.344 345.871 718.344 345.871 721.438 342.588Z" fill="#10B981"/>
<path d="M548.188 536.297C557.661 542.605 567.011 548.976 576.031 555.996C572.238 565.457 572.238 565.457 568.483 567.181C562.367 567.752 558.077 563.328 553.215 559.792C552.136 559.057 551.057 558.322 549.946 557.564C548.927 556.837 547.908 556.11 546.858 555.361C545.925 554.697 544.993 554.034 544.032 553.35C542 551.071 542 551.071 542 544.505C545.094 539.99 545.094 539.99 548.188 536.297Z" fill="#10B981"/>
<path d="M645.641 455.858C651.828 459.142 651.828 459.142 656.469 462.425C655.488 468.97 652.388 473.516 648.928 478.943C647.847 480.655 646.766 482.367 645.653 484.131C643.226 487.693 640.954 490.676 637.906 493.615C634.232 492.384 634.232 492.384 630.172 490.332C629.151 488.165 628.13 485.998 627.078 483.766C633.204 474.556 639.329 465.347 645.641 455.858Z" fill="#10B981"/>
<path d="M367.203 644.643C374.494 647.086 374.494 647.086 376.738 651.337C377.165 652.378 377.592 653.42 378.031 654.492C375.521 658.257 373.007 662.018 370.49 665.778C369.778 666.847 369.067 667.915 368.333 669.017C367.645 670.043 366.957 671.069 366.248 672.127C365.617 673.072 364.985 674.018 364.334 674.992C362.562 677.475 362.562 677.475 359.469 680.758C354.895 680.384 352.43 679.753 348.931 676.551C348.324 675.772 347.718 674.994 347.094 674.191C349.321 667.14 352.657 662.319 357.148 656.647C358.377 655.083 359.605 653.519 360.871 651.908C364.109 647.926 364.109 647.926 367.203 644.643ZM365.656 649.567C362.835 652.673 360.568 655.544 358.212 659.007C357.563 659.891 356.914 660.776 356.245 661.687C352.534 666.896 352.534 666.896 352.103 673.191C352.492 674.063 352.881 674.935 353.281 675.833C356.861 676.624 356.861 676.624 361.016 675.833C364.738 671.746 364.738 671.746 367.783 666.394C368.88 664.642 369.977 662.889 371.107 661.084C373.762 656.455 373.762 656.455 372.968 652.209C372.597 651.337 372.226 650.466 371.844 649.567C369.802 649.567 367.76 649.567 365.656 649.567Z" fill="#10B981"/>
<path d="M721.438 342.588C730.286 346.584 730.286 346.584 732.096 350.469C732.343 355.736 730.273 358.012 727.335 362.185C725.839 364.333 725.839 364.333 724.314 366.526C718.357 374.747 718.357 374.747 715.25 378.703C708.151 377.889 708.151 377.889 704.935 373.701C704.256 372.643 703.576 371.585 702.875 370.495C705.384 366.456 707.899 362.421 710.416 358.388C711.128 357.241 711.84 356.094 712.573 354.913C713.261 353.812 713.949 352.712 714.658 351.578C715.29 350.564 715.922 349.549 716.573 348.504C718.344 345.871 718.344 345.871 721.438 342.588ZM721.438 347.513C715.424 355.38 709.798 362.815 705.969 372.137C707.58 374.163 707.58 374.163 711.063 374.42C715.567 374.186 715.567 374.186 718.712 370.059C719.771 368.442 720.83 366.826 721.921 365.16C723 363.56 724.078 361.96 725.19 360.312C728.131 355.645 728.131 355.645 727.625 349.154C725.583 348.613 723.541 348.071 721.438 347.513Z" fill="#10B981"/>
<path d="M494.047 503.465C497.875 505.09 497.875 505.09 501.781 506.748C501.781 507.832 501.781 508.915 501.781 510.031C504.844 511.115 507.907 512.198 511.062 513.314C511.062 514.398 511.062 515.481 511.062 516.598C512.594 516.598 514.125 516.598 515.703 516.598C515.703 517.681 515.703 518.765 515.703 519.881C516.724 520.423 517.745 520.964 518.797 521.522C518.286 522.606 517.776 523.689 517.25 524.806C510.055 525.555 505.977 523.237 499.848 519.368C498.213 518.358 496.577 517.349 494.893 516.309C490.953 513.314 490.953 513.314 489.406 508.39C490.938 506.764 492.469 505.139 494.047 503.465Z" fill="#10B981"/>
<path d="M645.641 455.858C651.828 459.142 651.828 459.142 656.469 462.425C655.488 468.97 652.388 473.516 648.928 478.943C647.847 480.655 646.766 482.367 645.653 484.131C643.226 487.693 640.954 490.676 637.906 493.615C634.232 492.384 634.232 492.384 630.172 490.332C629.151 488.165 628.13 485.998 627.078 483.766C633.204 474.556 639.329 465.347 645.641 455.858ZM645.641 460.783C643.017 464.015 640.698 467.164 638.39 470.633C637.747 471.572 637.104 472.512 636.441 473.48C634.853 475.804 633.284 478.142 631.719 480.482C632.943 483.765 632.943 483.765 634.812 487.049C636.344 487.591 637.875 488.132 639.453 488.69C644.047 481.648 648.642 474.605 653.375 467.35C652.354 465.183 651.333 463.016 650.281 460.783C648.75 460.783 647.218 460.783 645.641 460.783Z" fill="#10B981"/>
<path d="M407.422 588.828C410.485 590.995 413.548 593.162 416.703 595.395C415.28 602.813 411.732 607.715 407.615 613.76C406.923 614.813 406.231 615.865 405.518 616.95C400.263 624.74 400.263 624.74 395.047 626.585C390.89 624.225 390.89 624.225 387.312 621.66C388.047 613.324 391.951 608.074 396.497 601.551C397.202 600.505 397.907 599.46 398.633 598.383C403.893 590.701 403.893 590.701 407.422 588.828ZM405.875 593.753C403.875 596.384 401.877 599.018 399.881 601.653C398.768 603.12 397.656 604.586 396.509 606.097C393.377 610.228 393.377 610.228 390.406 615.094C390.883 618.628 390.883 618.628 391.953 621.66C393.995 622.202 396.037 622.744 398.141 623.302C400.479 619.894 402.796 616.474 405.102 613.042C405.766 612.079 406.43 611.116 407.114 610.124C410.801 604.597 412.062 602.366 412.062 595.395C410.021 594.853 407.979 594.311 405.875 593.753Z" fill="#10B981"/>
<path d="M546.641 542.863C550.314 542.658 550.314 542.658 554.375 542.863C557.469 546.147 557.469 546.147 559.016 549.43C560.547 549.43 562.078 549.43 563.656 549.43C563.656 550.513 563.656 551.597 563.656 552.713C566.719 553.796 569.782 554.88 572.938 555.996C572.427 558.163 571.917 560.33 571.391 562.563C564.375 563.298 561.189 561.354 555.632 556.92C550.56 552.833 550.56 552.833 545.094 549.43C545.604 547.263 546.115 545.096 546.641 542.863Z" fill="#10B981"/>
<path d="M682.766 400.044C687.939 401.232 691.03 403.027 695.141 406.61C692.684 412.097 689.789 417.177 686.729 422.308C685.806 423.868 684.883 425.427 683.932 427.034C681.653 430.562 679.718 433.497 676.578 436.159C671.409 435.758 669.454 435.165 665.75 431.234C665.96 422.992 670.662 417.352 675.128 411.022C675.859 409.963 676.59 408.904 677.342 407.813C679.138 405.214 680.95 402.628 682.766 400.044ZM679.358 408.688C677.79 411.113 677.79 411.113 676.191 413.587C675.131 415.187 674.07 416.787 672.977 418.435C670.769 422.356 669.523 425.142 668.844 429.593C671.141 431.218 671.141 431.218 673.484 432.876C679.669 430.407 682.017 426.615 685.473 420.769C686.422 419.199 687.371 417.629 688.349 416.011C690.969 411.398 690.969 411.398 690.5 404.969C684.923 404.1 683.38 404.298 679.358 408.688Z" fill="#10B981"/>
<path d="M444.547 534.655C450.251 535.473 453.217 536.462 456.922 541.222C454.554 548.891 450.568 554.39 445.9 560.613C444.815 562.084 444.815 562.084 443.707 563.585C441.933 565.987 440.147 568.38 438.359 570.771C433.344 570.195 431.22 569.848 427.821 565.743C427.215 564.694 426.609 563.644 425.984 562.562C427.065 560.961 428.146 559.359 429.259 557.708C430.681 555.599 432.103 553.489 433.525 551.379C434.237 550.324 434.949 549.269 435.683 548.182C436.37 547.161 437.058 546.14 437.767 545.088C438.399 544.151 439.031 543.214 439.682 542.249C441.343 539.746 442.947 537.202 444.547 534.655ZM440.692 543.658C439.437 545.425 438.209 547.213 437.006 549.019C436.364 549.904 435.722 550.788 435.06 551.7C431.402 556.922 431.402 556.922 431 563.204C431.386 564.076 431.773 564.947 432.172 565.846C438.352 566.595 438.352 566.595 441.616 562.601C442.679 561.166 443.742 559.732 444.837 558.253C445.912 556.844 446.986 555.435 448.094 553.983C450.957 549.045 451.751 545.305 452.281 539.58C446.404 538.559 445.005 539.095 440.692 543.658Z" fill="#10B981"/>
<path d="M603.875 523.164C605.406 523.164 606.938 523.164 608.516 523.164C608.516 524.789 608.516 526.414 608.516 528.089C610.047 528.631 611.578 529.172 613.156 529.73C609.583 535.689 606.01 541.648 602.328 547.788C600.286 546.705 598.244 545.621 596.141 544.505C596.808 535.652 598.494 530.051 603.875 523.164Z" fill="#10B981"/>
<path d="M565.203 552.713C569.032 554.338 569.032 554.338 572.938 555.996C572.427 558.163 571.917 560.33 571.391 562.562C567.717 562.87 567.717 562.87 563.656 562.562C562.635 560.937 561.614 559.312 560.562 557.638C562.094 556.013 563.625 554.387 565.203 552.713Z" fill="#10B981"/>
<path d="M608.516 513.314C613.876 516.565 613.876 516.565 619.344 519.881C618.472 525.248 617.024 527.803 613.156 531.372C613.667 528.122 614.177 524.871 614.703 521.522C610.875 519.897 610.875 519.897 606.969 518.239C607.479 516.614 607.99 514.989 608.516 513.314Z" fill="#10B981"/>
<path d="M715.25 301.548C715.25 307.848 713.293 309.944 709.836 314.988C708.831 316.468 707.826 317.947 706.791 319.471C706.009 320.599 705.227 321.727 704.422 322.889C703.911 321.263 703.401 319.638 702.875 317.964C705.431 313.892 705.431 313.892 708.966 309.448C710.128 307.969 711.291 306.49 712.489 304.966C713.855 303.274 713.855 303.274 715.25 301.548Z" fill="#10B981"/>
</g>
<defs>
<clipPath id="clip0_1123_382">
<rect width="1178" height="915" fill="white"/>
</clipPath>
</defs>
</svg>
